<mxfile host="65bd71144e" pages="2">
    <diagram name="Flamingock Example 2" id="T4m9RIbxOqnf5Gs9FGc7">
        <mxGraphModel dx="1381" dy="1996" grid="0" gridSize="10" guides="1" tooltips="1" connect="1" arrows="1" fold="1" page="1" pageScale="1" pageWidth="827" pageHeight="1169" math="0" shadow="0">
            <root>
                <mxCell id="cy5dHFQ3yvotuSSBNe2O-0"/>
                <mxCell id="cy5dHFQ3yvotuSSBNe2O-1" parent="cy5dHFQ3yvotuSSBNe2O-0"/>
                <mxCell id="cy5dHFQ3yvotuSSBNe2O-3" value="&lt;b&gt;&lt;i&gt;Your Application&lt;/i&gt;&lt;/b&gt;" style="rounded=1;whiteSpace=wrap;html=1;arcSize=3;verticalAlign=top;fontSize=16;fillColor=#f5f5f5;fontColor=#333333;strokeColor=#666666;" vertex="1" parent="cy5dHFQ3yvotuSSBNe2O-1">
                    <mxGeometry x="-30" y="100" width="750" height="305" as="geometry"/>
                </mxCell>
                <mxCell id="cy5dHFQ3yvotuSSBNe2O-4" value="Workflow / Pipeline (YAML)" style="rounded=1;whiteSpace=wrap;html=1;verticalAlign=top;fontStyle=3;fillColor=#f9f7ed;strokeColor=#36393d;sketch=1;curveFitting=1;jiggle=2;" vertex="1" parent="cy5dHFQ3yvotuSSBNe2O-1">
                    <mxGeometry x="-10" y="150" width="590" height="170" as="geometry"/>
                </mxCell>
                <mxCell id="cy5dHFQ3yvotuSSBNe2O-5" value="" style="rounded=1;whiteSpace=wrap;html=1;arcSize=7;glass=1;" vertex="1" parent="cy5dHFQ3yvotuSSBNe2O-1">
                    <mxGeometry x="-30" y="-10" width="650" height="100" as="geometry"/>
                </mxCell>
                <mxCell id="cy5dHFQ3yvotuSSBNe2O-6" value="&lt;b&gt;&lt;i&gt;&lt;font style=&quot;color: rgb(77, 77, 77);&quot;&gt;Flamingock library&amp;nbsp; &amp;nbsp;&lt;/font&gt;&lt;/i&gt;&lt;/b&gt;" style="rounded=1;whiteSpace=wrap;html=1;verticalAlign=middle;shadow=0;glass=0;strokeColor=light-dark(#fa877c, #ededed);strokeWidth=3;align=right;arcSize=4;" vertex="1" parent="cy5dHFQ3yvotuSSBNe2O-1">
                    <mxGeometry x="520" y="336.72" width="170" height="60" as="geometry"/>
                </mxCell>
                <mxCell id="cy5dHFQ3yvotuSSBNe2O-7" style="edgeStyle=none;html=1;exitX=0.5;exitY=1;exitDx=0;exitDy=0;dashed=1;" edge="1" parent="cy5dHFQ3yvotuSSBNe2O-1" source="cy5dHFQ3yvotuSSBNe2O-6">
                    <mxGeometry relative="1" as="geometry">
                        <mxPoint x="605" y="446.72" as="targetPoint"/>
                        <mxPoint x="614" y="368.72" as="sourcePoint"/>
                    </mxGeometry>
                </mxCell>
                <mxCell id="cy5dHFQ3yvotuSSBNe2O-8" style="edgeStyle=orthogonalEdgeStyle;html=1;exitX=0.637;exitY=0.764;exitDx=0;exitDy=0;exitPerimeter=0;entryX=0;entryY=0.5;entryDx=0;entryDy=0;" edge="1" parent="cy5dHFQ3yvotuSSBNe2O-1" target="cy5dHFQ3yvotuSSBNe2O-6">
                    <mxGeometry relative="1" as="geometry">
                        <mxPoint x="276.41121" y="278.1999999999998" as="sourcePoint"/>
                        <Array as="points">
                            <mxPoint x="280" y="367"/>
                        </Array>
                    </mxGeometry>
                </mxCell>
                <mxCell id="cy5dHFQ3yvotuSSBNe2O-9" value="" style="shape=image;verticalLabelPosition=bottom;labelBackgroundColor=default;verticalAlign=top;aspect=fixed;imageAspect=0;image=data:image/svg+xml,PHN2ZyB4bWxuczp4bGluaz0iaHR0cDovL3d3dy53My5vcmcvMTk5OS94bGluayIgeG1sbnM9Imh0dHA6Ly93d3cudzMub3JnLzIwMDAvc3ZnIiB4bWw6c3BhY2U9InByZXNlcnZlIiBzdHlsZT0iZW5hYmxlLWJhY2tncm91bmQ6bmV3IDAgMCAxMDAwIDEwMDA7IiB2aWV3Qm94PSIwIDAgMTAwMCAxMDAwIiB5PSIwcHgiIHg9IjBweCIgaWQ9IkxheWVyXzEiIHZlcnNpb249IjEuMSI+JiN4YTs8c3R5bGUgdHlwZT0idGV4dC9jc3MiPiYjeGE7CS5zdDB7ZmlsbDojRkE4NzdDO30mI3hhOwkuc3Qxe2ZpbGw6I0VGNjc2MTt9JiN4YTsJLnN0MntmaWxsOiM3Q0Q1QzE7fSYjeGE7CS5zdDN7ZmlsbDojMzUzNTM1O30mI3hhOwkuc3Q0e2ZpbGw6IzVFNUU1RTt9JiN4YTsJLnN0NXtmaWxsOiNGMEQwQzA7fSYjeGE7CS5zdDZ7ZmlsbDojRkZGRkZGO30mI3hhOzwvc3R5bGU+JiN4YTs8Zz4mI3hhOwk8cGF0aCBkPSJNMjc0LjksNjcyLjdoNzUuM2M4LjgsMCwxNS45LDcuMSwxNS45LDE1Ljl2MGMwLDguOC03LjEsMTUuOS0xNS45LDE1LjloLTc1LjNjLTguOCwwLTE1LjktNy4xLTE1LjktMTUuOXYwJiMxMDsmIzk7JiM5O0MyNTksNjc5LjgsMjY2LjEsNjcyLjcsMjc0LjksNjcyLjd6IiBjbGFzcz0ic3QwIi8+JiN4YTsJPHBhdGggZD0iTTI5MS42LDY0MC45aDc1LjNjOC44LDAsMTUuOSw3LjEsMTUuOSwxNS45djBjMCw4LjgtNy4xLDE1LjktMTUuOSwxNS45aC03NS4zYy04LjgsMC0xNS45LTcuMS0xNS45LTE1Ljl2MCYjMTA7JiM5OyYjOTtDMjc1LjcsNjQ4LDI4Mi44LDY0MC45LDI5MS42LDY0MC45eiIgY2xhc3M9InN0MSIvPiYjeGE7CTxwYXRoIGQ9Ik0zMTcsNjA5LjFoNzUuM2M4LjgsMCwxNS45LDcuMSwxNS45LDE1Ljl2MGMwLDguOC03LjEsMTUuOS0xNS45LDE1LjlIMzE3Yy04LjgsMC0xNS45LTcuMS0xNS45LTE1Ljl2MCYjMTA7JiM5OyYjOTtDMzAxLjEsNjE2LjIsMzA4LjIsNjA5LjEsMzE3LDYwOS4xeiIgY2xhc3M9InN0MiIvPiYjeGE7CTxnPiYjeGE7CQk8cGF0aCBkPSJNNTM2LjIsMjk1LjVjMCwwLDEyLjksMjkuMiw4NC40LDI1LjhsLTEyLjUsNTUuMUM2MDguMSwzNzYuNSw1MjIsMzY0LjksNTM2LjIsMjk1LjV6IiBjbGFzcz0ic3QwIi8+JiN4YTsJPC9nPiYjeGE7CTxnPiYjeGE7CQk8cGF0aCBkPSJNNzA1LjksNTI3LjVjMzkuMS0zMCw0Ni43LTg2LDE2LjgtMTI1LjNjLTI5LjktMzkuMy04NS44LTQ3LjEtMTI1LjMtMTcuNUw3MDUuOSw1MjcuNXoiIGNsYXNzPSJzdDQiLz4mI3hhOwk8L2c+JiN4YTsJPGc+JiN4YTsJCTxwYXRoIGQ9Ik03MzEuNyw0MTYuNWMtMi41LTUtNS41LTkuOS05LTE0LjZjLTI5LjktMzkuMy04NS44LTQ3LjEtMTI1LjMtMTcuNGw3Mi4xLDk1JiMxMDsmIzk7JiM5OyYjOTtDNzAxLjcsNDc0LjMsNzI2LjksNDQ4LjgsNzMxLjcsNDE2LjV6IiBjbGFzcz0ic3Q1Ii8+JiN4YTsJPC9nPiYjeGE7CTxnPiYjeGE7CQk8cG9seWdvbiBwb2ludHM9IjU0OS43LDM5Ni4zIDYzOC40LDM2My40IDYzOC40LDU0NS4xIDU0OS43LDU0NS4xIiBjbGFzcz0ic3QwIi8+JiN4YTsJPC9nPiYjeGE7CTxnPiYjeGE7CQk8Y2lyY2xlIHI9Ijc1IiBjeT0iMzk2LjMiIGN4PSI2MjQuNyIgY2xhc3M9InN0MCIvPiYjeGE7CTwvZz4mI3hhOwk8Zz4mI3hhOwkJPGc+JiN4YTsJCQk8Y2lyY2xlIHI9IjM3LjciIGN5PSI0MDYuOSIgY3g9IjYzOC40IiBjbGFzcz0ic3Q2Ii8+JiN4YTsJCTwvZz4mI3hhOwkJPGc+JiN4YTsJCQk8Zz4mI3hhOwkJCQk8Y2lyY2xlIHI9IjE4LjgiIGN5PSI0MDYuOSIgY3g9IjYzOC40IiBjbGFzcz0ic3Q0Ii8+JiN4YTsJCQk8L2c+JiN4YTsJCQk8Zz4mI3hhOwkJCQk8Y2lyY2xlIHI9IjExLjUiIGN5PSIzOTMuMSIgY3g9IjYyOC41IiBjbGFzcz0ic3Q2Ii8+JiN4YTsJCQk8L2c+JiN4YTsJCQk8Zz4mI3hhOwkJCQk8Y2lyY2xlIHI9IjYuMyIgY3k9IjQxMC44IiBjeD0iNjQzLjciIGNsYXNzPSJzdDYiLz4mI3hhOwkJCTwvZz4mI3hhOwkJPC9nPiYjeGE7CTwvZz4mI3hhOwk8Zz4mI3hhOwkJPHBhdGggZD0iTTM0MS44LDcwNC41aDE1NS43Yzc3LjgsMCwxNDAuOS02My4xLDE0MC45LTE0MC45di0xOC41SDUwMS4yQzQxMy4yLDU0NS4xLDM0MS44LDYxNi41LDM0MS44LDcwNC41JiMxMDsmIzk7JiM5OyYjOTtMMzQxLjgsNzA0LjV6IiBjbGFzcz0ic3QwIi8+JiN4YTsJPC9nPiYjeGE7CTxnPiYjeGE7CQk8cGF0aCBkPSJNNTgxLjgsNTY4LjNjMCwwLTIwLjksMTE1LjgtMjIyLjgsNjQuNGMwLDAsMjAuMi00Mi43LDU0LjItNTguMUM0NDcuMiw1NTkuMSw1ODEuOCw1NjguMyw1ODEuOCw1NjguM3oiIGNsYXNzPSJzdDEiLz4mI3hhOwk8L2c+JiN4YTsJPGc+JiN4YTsJCTxwYXRoIGQ9Ik01NjYsNTE2LjZjMzEuOCwzMS44LDE2LjUsODUuOC0yNy4xLDk2LjdjLTU2LDE0LTExNy44LTEtMTYxLjYtNDQuOGMtNjYuNS02Ni41LTY2LjUtMTc0LjIsMC0yNDAuNiYjMTA7JiM5OyYjOTsmIzk7TDU2Niw1MTYuNnoiIGNsYXNzPSJzdDEiLz4mI3hhOwk8L2c+JiN4YTsJPGc+JiN4YTsJCTxwYXRoIGQ9Ik01MjEuNSw0NzIuMWMtMzkuOCwzOS44LTEwNC4zLDM5LjgtMTQ0LDBzLTM5LjgtMTA0LjMsMC0xNDRMNTIxLjUsNDcyLjF6IiBjbGFzcz0ic3QwIi8+JiN4YTsJPC9nPiYjeGE7CTxnPiYjeGE7CQk8Zz4mI3hhOwkJCTxwYXRoIGQ9Ik00OTYuMSw2MzMuOWwtNS45LTAuNGwtMy0wLjJsLTIuOS0wLjRsLTUuOS0wLjdsLTUuOC0xYy0xLTAuMi0xLjktMC4zLTIuOS0wLjVsLTIuOS0wLjYmIzEwOyYjOTsmIzk7JiM5OyYjOTtjLTEuOS0wLjQtMy44LTAuOC01LjgtMS4zbC01LjctMS41Yy0wLjktMC4zLTEuOS0wLjUtMi44LTAuOGwtMi44LTAuOWMtMS45LTAuNi0zLjctMS4yLTUuNi0xLjhsLTUuNS0yLjEmIzEwOyYjOTsmIzk7JiM5OyYjOTtjLTAuOS0wLjQtMS44LTAuNy0yLjctMWwtMi43LTEuMmMtMS44LTAuOC0zLjYtMS41LTUuNC0yLjNsLTUuMy0yLjZjLTAuOS0wLjQtMS44LTAuOC0yLjYtMS4zbC0yLjYtMS40bC01LjEtMi44bC01LTMuMSYjMTA7JiM5OyYjOTsmIzk7JiM5O2MtMjYuMy0xNi41LTQ3LjgtMzkuNy02Mi40LTY2LjNjLTE0LjUtMjYuNy0yMS44LTU2LjgtMjEuMy04Ni41YzAuNS0yOS43LDguNi01OC45LDIzLjItODRjLTEyLjMsMjYuMy0xNy41LDU1LjUtMTUuNCw4My44JiMxMDsmIzk7JiM5OyYjOTsmIzk7YzIuMSwyOC4zLDExLjUsNTUuNywyNi45LDc4LjdjMTUuNCwyMywzNi42LDQxLjgsNjAuNiw1NC4xbDQuNSwyLjNsNC42LDJsMi4zLDFjMC44LDAuMywxLjYsMC42LDIuNCwwLjlsNC43LDEuOCYjMTA7JiM5OyYjOTsmIzk7JiM5O2MxLjYsMC41LDMuMiwxLjEsNC44LDEuNmwyLjQsMC44YzAuOCwwLjMsMS42LDAuNSwyLjQsMC43bDQuOCwxLjNjMS42LDAuNCwzLjMsMC43LDQuOSwxLjFsMi40LDAuNWMwLjgsMC4yLDEuNiwwLjMsMi41LDAuNCYjMTA7JiM5OyYjOTsmIzk7JiM5O2w0LjksMC45bDUsMC42bDIuNSwwLjNjMC44LDAuMSwxLjcsMC4xLDIuNSwwLjJsNSwwLjRsNSwwLjJsMi41LDAuMWwyLjUsMGw0LjktMC4xbDAuNiwwYzguNi0wLjEsMTUuNyw2LjcsMTUuOSwxNS40JiMxMDsmIzk7JiM5OyYjOTsmIzk7YzAuMSw4LjYtNi43LDE1LjctMTUuNCwxNS45QzQ5Nyw2MzQsNDk2LjUsNjM0LDQ5Ni4xLDYzMy45eiIgY2xhc3M9InN0MiIvPiYjeGE7CQk8L2c+JiN4YTsJPC9nPiYjeGE7PC9nPiYjeGE7PC9zdmc+;strokeColor=light-dark(#fa877c, #32a0ff);" vertex="1" parent="cy5dHFQ3yvotuSSBNe2O-1">
                    <mxGeometry x="522.55" y="334.94000000000005" width="61.78" height="61.78" as="geometry"/>
                </mxCell>
                <mxCell id="cy5dHFQ3yvotuSSBNe2O-10" value="" style="sketch=0;pointerEvents=1;shadow=0;dashed=0;html=1;strokeColor=none;fillColor=light-dark(#4D4D4D,#A8A8A8);labelPosition=center;verticalLabelPosition=bottom;verticalAlign=top;outlineConnect=0;align=center;shape=mxgraph.office.communications.exchange_active_sync;gradientColor=none;" vertex="1" parent="cy5dHFQ3yvotuSSBNe2O-1">
                    <mxGeometry x="520.55" y="338" width="22" height="22" as="geometry"/>
                </mxCell>
                <mxCell id="cy5dHFQ3yvotuSSBNe2O-11" value="" style="shape=datastore;whiteSpace=wrap;html=1;rounded=1;shadow=0;glass=0;strokeColor=light-dark(#fa877c, #ededed);strokeWidth=2;align=center;verticalAlign=top;arcSize=5;fontFamily=Helvetica;fontSize=12;fontColor=default;fillColor=default;" vertex="1" parent="cy5dHFQ3yvotuSSBNe2O-1">
                    <mxGeometry x="610" y="523.0500000000001" width="30" height="35.78" as="geometry"/>
                </mxCell>
                <mxCell id="cy5dHFQ3yvotuSSBNe2O-13" value="" style="rounded=1;whiteSpace=wrap;html=1;fillColor=#d5e8d4;strokeColor=#82b366;" vertex="1" parent="cy5dHFQ3yvotuSSBNe2O-1">
                    <mxGeometry x="-10" y="21" width="40" height="19" as="geometry"/>
                </mxCell>
                <mxCell id="cy5dHFQ3yvotuSSBNe2O-14" value="" style="rounded=1;whiteSpace=wrap;html=1;fillColor=default;strokeColor=light-dark(#fa877c, #ededed);shadow=0;glass=0;opacity=70;strokeWidth=3;align=center;verticalAlign=top;arcSize=5;fontFamily=Helvetica;fontSize=12;fontColor=default;" vertex="1" parent="cy5dHFQ3yvotuSSBNe2O-1">
                    <mxGeometry x="-10" y="52" width="40" height="19" as="geometry"/>
                </mxCell>
                <mxCell id="cy5dHFQ3yvotuSSBNe2O-15" value="" style="rounded=1;whiteSpace=wrap;html=1;arcSize=5;verticalAlign=top;fontSize=16;fillColor=#f5f5f5;fontColor=#333333;strokeColor=#666666;" vertex="1" parent="cy5dHFQ3yvotuSSBNe2O-1">
                    <mxGeometry x="270" y="25.5" width="40" height="19" as="geometry"/>
                </mxCell>
                <mxCell id="cy5dHFQ3yvotuSSBNe2O-16" value="&lt;b&gt;&lt;i&gt;Key&lt;/i&gt;&lt;/b&gt;" style="text;html=1;align=center;verticalAlign=middle;whiteSpace=wrap;rounded=0;" vertex="1" parent="cy5dHFQ3yvotuSSBNe2O-1">
                    <mxGeometry x="-30" y="-10" width="60" height="30" as="geometry"/>
                </mxCell>
                <mxCell id="cy5dHFQ3yvotuSSBNe2O-17" value="Files to be configured / implemented" style="text;html=1;align=left;verticalAlign=middle;whiteSpace=wrap;rounded=0;" vertex="1" parent="cy5dHFQ3yvotuSSBNe2O-1">
                    <mxGeometry x="40" y="16.5" width="230" height="30" as="geometry"/>
                </mxCell>
                <mxCell id="cy5dHFQ3yvotuSSBNe2O-18" value="Flamingock components" style="text;html=1;align=left;verticalAlign=middle;whiteSpace=wrap;rounded=0;" vertex="1" parent="cy5dHFQ3yvotuSSBNe2O-1">
                    <mxGeometry x="40" y="51" width="180" height="30" as="geometry"/>
                </mxCell>
                <mxCell id="cy5dHFQ3yvotuSSBNe2O-19" value="Your application" style="text;html=1;align=left;verticalAlign=middle;whiteSpace=wrap;rounded=0;" vertex="1" parent="cy5dHFQ3yvotuSSBNe2O-1">
                    <mxGeometry x="320" y="21" width="130" height="30" as="geometry"/>
                </mxCell>
                <mxCell id="cy5dHFQ3yvotuSSBNe2O-20" value="" style="shape=image;verticalLabelPosition=bottom;labelBackgroundColor=default;verticalAlign=top;aspect=fixed;imageAspect=0;image=data:image/svg+xml,PHN2ZyB4bWxuczp4bGluaz0iaHR0cDovL3d3dy53My5vcmcvMTk5OS94bGluayIgeG1sbnM9Imh0dHA6Ly93d3cudzMub3JnLzIwMDAvc3ZnIiB4bWw6c3BhY2U9InByZXNlcnZlIiBzdHlsZT0iZW5hYmxlLWJhY2tncm91bmQ6bmV3IDAgMCAxMDAwIDEwMDA7IiB2aWV3Qm94PSIwIDAgMTAwMCAxMDAwIiB5PSIwcHgiIHg9IjBweCIgaWQ9IkxheWVyXzEiIHZlcnNpb249IjEuMSI+JiN4YTs8c3R5bGUgdHlwZT0idGV4dC9jc3MiPiYjeGE7CS5zdDB7ZmlsbDojRkE4NzdDO30mI3hhOwkuc3Qxe2ZpbGw6I0VGNjc2MTt9JiN4YTsJLnN0MntmaWxsOiM3Q0Q1QzE7fSYjeGE7CS5zdDN7ZmlsbDojMzUzNTM1O30mI3hhOwkuc3Q0e2ZpbGw6IzVFNUU1RTt9JiN4YTsJLnN0NXtmaWxsOiNGMEQwQzA7fSYjeGE7CS5zdDZ7ZmlsbDojRkZGRkZGO30mI3hhOzwvc3R5bGU+JiN4YTs8Zz4mI3hhOwk8cGF0aCBkPSJNMjc0LjksNjcyLjdoNzUuM2M4LjgsMCwxNS45LDcuMSwxNS45LDE1Ljl2MGMwLDguOC03LjEsMTUuOS0xNS45LDE1LjloLTc1LjNjLTguOCwwLTE1LjktNy4xLTE1LjktMTUuOXYwJiMxMDsmIzk7JiM5O0MyNTksNjc5LjgsMjY2LjEsNjcyLjcsMjc0LjksNjcyLjd6IiBjbGFzcz0ic3QwIi8+JiN4YTsJPHBhdGggZD0iTTI5MS42LDY0MC45aDc1LjNjOC44LDAsMTUuOSw3LjEsMTUuOSwxNS45djBjMCw4LjgtNy4xLDE1LjktMTUuOSwxNS45aC03NS4zYy04LjgsMC0xNS45LTcuMS0xNS45LTE1Ljl2MCYjMTA7JiM5OyYjOTtDMjc1LjcsNjQ4LDI4Mi44LDY0MC45LDI5MS42LDY0MC45eiIgY2xhc3M9InN0MSIvPiYjeGE7CTxwYXRoIGQ9Ik0zMTcsNjA5LjFoNzUuM2M4LjgsMCwxNS45LDcuMSwxNS45LDE1Ljl2MGMwLDguOC03LjEsMTUuOS0xNS45LDE1LjlIMzE3Yy04LjgsMC0xNS45LTcuMS0xNS45LTE1Ljl2MCYjMTA7JiM5OyYjOTtDMzAxLjEsNjE2LjIsMzA4LjIsNjA5LjEsMzE3LDYwOS4xeiIgY2xhc3M9InN0MiIvPiYjeGE7CTxnPiYjeGE7CQk8cGF0aCBkPSJNNTM2LjIsMjk1LjVjMCwwLDEyLjksMjkuMiw4NC40LDI1LjhsLTEyLjUsNTUuMUM2MDguMSwzNzYuNSw1MjIsMzY0LjksNTM2LjIsMjk1LjV6IiBjbGFzcz0ic3QwIi8+JiN4YTsJPC9nPiYjeGE7CTxnPiYjeGE7CQk8cGF0aCBkPSJNNzA1LjksNTI3LjVjMzkuMS0zMCw0Ni43LTg2LDE2LjgtMTI1LjNjLTI5LjktMzkuMy04NS44LTQ3LjEtMTI1LjMtMTcuNUw3MDUuOSw1MjcuNXoiIGNsYXNzPSJzdDQiLz4mI3hhOwk8L2c+JiN4YTsJPGc+JiN4YTsJCTxwYXRoIGQ9Ik03MzEuNyw0MTYuNWMtMi41LTUtNS41LTkuOS05LTE0LjZjLTI5LjktMzkuMy04NS44LTQ3LjEtMTI1LjMtMTcuNGw3Mi4xLDk1JiMxMDsmIzk7JiM5OyYjOTtDNzAxLjcsNDc0LjMsNzI2LjksNDQ4LjgsNzMxLjcsNDE2LjV6IiBjbGFzcz0ic3Q1Ii8+JiN4YTsJPC9nPiYjeGE7CTxnPiYjeGE7CQk8cG9seWdvbiBwb2ludHM9IjU0OS43LDM5Ni4zIDYzOC40LDM2My40IDYzOC40LDU0NS4xIDU0OS43LDU0NS4xIiBjbGFzcz0ic3QwIi8+JiN4YTsJPC9nPiYjeGE7CTxnPiYjeGE7CQk8Y2lyY2xlIHI9Ijc1IiBjeT0iMzk2LjMiIGN4PSI2MjQuNyIgY2xhc3M9InN0MCIvPiYjeGE7CTwvZz4mI3hhOwk8Zz4mI3hhOwkJPGc+JiN4YTsJCQk8Y2lyY2xlIHI9IjM3LjciIGN5PSI0MDYuOSIgY3g9IjYzOC40IiBjbGFzcz0ic3Q2Ii8+JiN4YTsJCTwvZz4mI3hhOwkJPGc+JiN4YTsJCQk8Zz4mI3hhOwkJCQk8Y2lyY2xlIHI9IjE4LjgiIGN5PSI0MDYuOSIgY3g9IjYzOC40IiBjbGFzcz0ic3Q0Ii8+JiN4YTsJCQk8L2c+JiN4YTsJCQk8Zz4mI3hhOwkJCQk8Y2lyY2xlIHI9IjExLjUiIGN5PSIzOTMuMSIgY3g9IjYyOC41IiBjbGFzcz0ic3Q2Ii8+JiN4YTsJCQk8L2c+JiN4YTsJCQk8Zz4mI3hhOwkJCQk8Y2lyY2xlIHI9IjYuMyIgY3k9IjQxMC44IiBjeD0iNjQzLjciIGNsYXNzPSJzdDYiLz4mI3hhOwkJCTwvZz4mI3hhOwkJPC9nPiYjeGE7CTwvZz4mI3hhOwk8Zz4mI3hhOwkJPHBhdGggZD0iTTM0MS44LDcwNC41aDE1NS43Yzc3LjgsMCwxNDAuOS02My4xLDE0MC45LTE0MC45di0xOC41SDUwMS4yQzQxMy4yLDU0NS4xLDM0MS44LDYxNi41LDM0MS44LDcwNC41JiMxMDsmIzk7JiM5OyYjOTtMMzQxLjgsNzA0LjV6IiBjbGFzcz0ic3QwIi8+JiN4YTsJPC9nPiYjeGE7CTxnPiYjeGE7CQk8cGF0aCBkPSJNNTgxLjgsNTY4LjNjMCwwLTIwLjksMTE1LjgtMjIyLjgsNjQuNGMwLDAsMjAuMi00Mi43LDU0LjItNTguMUM0NDcuMiw1NTkuMSw1ODEuOCw1NjguMyw1ODEuOCw1NjguM3oiIGNsYXNzPSJzdDEiLz4mI3hhOwk8L2c+JiN4YTsJPGc+JiN4YTsJCTxwYXRoIGQ9Ik01NjYsNTE2LjZjMzEuOCwzMS44LDE2LjUsODUuOC0yNy4xLDk2LjdjLTU2LDE0LTExNy44LTEtMTYxLjYtNDQuOGMtNjYuNS02Ni41LTY2LjUtMTc0LjIsMC0yNDAuNiYjMTA7JiM5OyYjOTsmIzk7TDU2Niw1MTYuNnoiIGNsYXNzPSJzdDEiLz4mI3hhOwk8L2c+JiN4YTsJPGc+JiN4YTsJCTxwYXRoIGQ9Ik01MjEuNSw0NzIuMWMtMzkuOCwzOS44LTEwNC4zLDM5LjgtMTQ0LDBzLTM5LjgtMTA0LjMsMC0xNDRMNTIxLjUsNDcyLjF6IiBjbGFzcz0ic3QwIi8+JiN4YTsJPC9nPiYjeGE7CTxnPiYjeGE7CQk8Zz4mI3hhOwkJCTxwYXRoIGQ9Ik00OTYuMSw2MzMuOWwtNS45LTAuNGwtMy0wLjJsLTIuOS0wLjRsLTUuOS0wLjdsLTUuOC0xYy0xLTAuMi0xLjktMC4zLTIuOS0wLjVsLTIuOS0wLjYmIzEwOyYjOTsmIzk7JiM5OyYjOTtjLTEuOS0wLjQtMy44LTAuOC01LjgtMS4zbC01LjctMS41Yy0wLjktMC4zLTEuOS0wLjUtMi44LTAuOGwtMi44LTAuOWMtMS45LTAuNi0zLjctMS4yLTUuNi0xLjhsLTUuNS0yLjEmIzEwOyYjOTsmIzk7JiM5OyYjOTtjLTAuOS0wLjQtMS44LTAuNy0yLjctMWwtMi43LTEuMmMtMS44LTAuOC0zLjYtMS41LTUuNC0yLjNsLTUuMy0yLjZjLTAuOS0wLjQtMS44LTAuOC0yLjYtMS4zbC0yLjYtMS40bC01LjEtMi44bC01LTMuMSYjMTA7JiM5OyYjOTsmIzk7JiM5O2MtMjYuMy0xNi41LTQ3LjgtMzkuNy02Mi40LTY2LjNjLTE0LjUtMjYuNy0yMS44LTU2LjgtMjEuMy04Ni41YzAuNS0yOS43LDguNi01OC45LDIzLjItODRjLTEyLjMsMjYuMy0xNy41LDU1LjUtMTUuNCw4My44JiMxMDsmIzk7JiM5OyYjOTsmIzk7YzIuMSwyOC4zLDExLjUsNTUuNywyNi45LDc4LjdjMTUuNCwyMywzNi42LDQxLjgsNjAuNiw1NC4xbDQuNSwyLjNsNC42LDJsMi4zLDFjMC44LDAuMywxLjYsMC42LDIuNCwwLjlsNC43LDEuOCYjMTA7JiM5OyYjOTsmIzk7JiM5O2MxLjYsMC41LDMuMiwxLjEsNC44LDEuNmwyLjQsMC44YzAuOCwwLjMsMS42LDAuNSwyLjQsMC43bDQuOCwxLjNjMS42LDAuNCwzLjMsMC43LDQuOSwxLjFsMi40LDAuNWMwLjgsMC4yLDEuNiwwLjMsMi41LDAuNCYjMTA7JiM5OyYjOTsmIzk7JiM5O2w0LjksMC45bDUsMC42bDIuNSwwLjNjMC44LDAuMSwxLjcsMC4xLDIuNSwwLjJsNSwwLjRsNSwwLjJsMi41LDAuMWwyLjUsMGw0LjktMC4xbDAuNiwwYzguNi0wLjEsMTUuNyw2LjcsMTUuOSwxNS40JiMxMDsmIzk7JiM5OyYjOTsmIzk7YzAuMSw4LjYtNi43LDE1LjctMTUuNCwxNS45QzQ5Nyw2MzQsNDk2LjUsNjM0LDQ5Ni4xLDYzMy45eiIgY2xhc3M9InN0MiIvPiYjeGE7CQk8L2c+JiN4YTsJPC9nPiYjeGE7PC9nPiYjeGE7PC9zdmc+;strokeColor=light-dark(#fa877c, #32a0ff);" vertex="1" parent="cy5dHFQ3yvotuSSBNe2O-1">
                    <mxGeometry x="520" y="424.22" width="150" height="150" as="geometry"/>
                </mxCell>
                <mxCell id="cy5dHFQ3yvotuSSBNe2O-21" style="edgeStyle=orthogonalEdgeStyle;html=1;exitX=0.631;exitY=0.75;exitDx=0;exitDy=0;exitPerimeter=0;entryX=0;entryY=0.5;entryDx=0;entryDy=0;" edge="1" parent="cy5dHFQ3yvotuSSBNe2O-1" source="cy5dHFQ3yvotuSSBNe2O-29" target="cy5dHFQ3yvotuSSBNe2O-6">
                    <mxGeometry relative="1" as="geometry">
                        <mxPoint x="217" y="293" as="sourcePoint"/>
                        <mxPoint x="320" y="377" as="targetPoint"/>
                        <Array as="points">
                            <mxPoint x="437" y="367"/>
                        </Array>
                    </mxGeometry>
                </mxCell>
                <mxCell id="cy5dHFQ3yvotuSSBNe2O-22" value="&lt;b&gt;Stage:&amp;nbsp;&lt;/b&gt;&lt;div&gt;&lt;b&gt;Database&amp;nbsp;&lt;/b&gt;&lt;/div&gt;&lt;div&gt;&lt;b&gt;Domain model changes&lt;/b&gt;&lt;/div&gt;" style="rounded=1;whiteSpace=wrap;html=1;verticalAlign=top;sketch=1;curveFitting=1;jiggle=2;fillColor=#fff2cc;strokeColor=#d6b656;" vertex="1" parent="cy5dHFQ3yvotuSSBNe2O-1">
                    <mxGeometry x="29" y="182" width="153.33" height="125.5" as="geometry"/>
                </mxCell>
                <mxCell id="cy5dHFQ3yvotuSSBNe2O-23" style="edgeStyle=orthogonalEdgeStyle;html=1;exitX=0.304;exitY=0.927;exitDx=0;exitDy=0;exitPerimeter=0;dashed=1;" edge="1" parent="cy5dHFQ3yvotuSSBNe2O-1" source="cy5dHFQ3yvotuSSBNe2O-33">
                    <mxGeometry relative="1" as="geometry">
                        <mxPoint x="60" y="278.5" as="sourcePoint"/>
                        <mxPoint x="85" y="450" as="targetPoint"/>
                        <Array as="points">
                            <mxPoint x="101" y="386"/>
                            <mxPoint x="85" y="386"/>
                        </Array>
                    </mxGeometry>
                </mxCell>
                <mxCell id="cy5dHFQ3yvotuSSBNe2O-24" value="Apply ChangeUnit to add a field" style="edgeLabel;html=1;align=center;verticalAlign=middle;resizable=0;points=[];" vertex="1" connectable="0" parent="cy5dHFQ3yvotuSSBNe2O-23">
                    <mxGeometry x="0.586" y="1" relative="1" as="geometry">
                        <mxPoint as="offset"/>
                    </mxGeometry>
                </mxCell>
                <mxCell id="cy5dHFQ3yvotuSSBNe2O-25" style="edgeStyle=orthogonalEdgeStyle;html=1;exitX=0.546;exitY=0.893;exitDx=0;exitDy=0;exitPerimeter=0;entryX=0;entryY=0.5;entryDx=0;entryDy=0;" edge="1" parent="cy5dHFQ3yvotuSSBNe2O-1" target="cy5dHFQ3yvotuSSBNe2O-6">
                    <mxGeometry relative="1" as="geometry">
                        <mxPoint x="109.1400000000001" y="286.2220000000002" as="sourcePoint"/>
                        <Array as="points">
                            <mxPoint x="109" y="367"/>
                        </Array>
                    </mxGeometry>
                </mxCell>
                <mxCell id="cy5dHFQ3yvotuSSBNe2O-27" value="&lt;b&gt;Stage:&amp;nbsp;&lt;/b&gt;&lt;div&gt;&lt;b&gt;Update Kafka event schema&lt;/b&gt;&lt;/div&gt;" style="rounded=1;whiteSpace=wrap;html=1;verticalAlign=top;sketch=1;curveFitting=1;jiggle=2;fillColor=#fff2cc;strokeColor=#d6b656;" vertex="1" parent="cy5dHFQ3yvotuSSBNe2O-1">
                    <mxGeometry x="188.33" y="181" width="153.33" height="126.5" as="geometry"/>
                </mxCell>
                <mxCell id="cy5dHFQ3yvotuSSBNe2O-28" value="&lt;b&gt;Stage:&amp;nbsp;&lt;/b&gt;&lt;div&gt;&lt;b&gt;Update API Gateway model&lt;/b&gt;&lt;/div&gt;" style="rounded=1;whiteSpace=wrap;html=1;verticalAlign=top;sketch=1;curveFitting=1;jiggle=2;fillColor=#fff2cc;strokeColor=#d6b656;" vertex="1" parent="cy5dHFQ3yvotuSSBNe2O-1">
                    <mxGeometry x="345" y="179" width="153.33" height="128.5" as="geometry"/>
                </mxCell>
                <mxCell id="cy5dHFQ3yvotuSSBNe2O-29" value="ChangeUnit" style="strokeWidth=2;html=1;shape=mxgraph.flowchart.document2;whiteSpace=wrap;size=0.25;fillColor=#d5e8d4;strokeColor=#82b366;" vertex="1" parent="cy5dHFQ3yvotuSSBNe2O-1">
                    <mxGeometry x="390" y="240" width="80" height="48" as="geometry"/>
                </mxCell>
                <mxCell id="cy5dHFQ3yvotuSSBNe2O-30" style="edgeStyle=none;html=1;exitX=1;exitY=0.5;exitDx=0;exitDy=0;exitPerimeter=0;entryX=0;entryY=0.5;entryDx=0;entryDy=0;entryPerimeter=0;" edge="1" parent="cy5dHFQ3yvotuSSBNe2O-1" target="cy5dHFQ3yvotuSSBNe2O-29">
                    <mxGeometry relative="1" as="geometry">
                        <mxPoint x="306.65999999999985" y="265" as="sourcePoint"/>
                    </mxGeometry>
                </mxCell>
                <mxCell id="cy5dHFQ3yvotuSSBNe2O-31" value="ChangeUnit" style="strokeWidth=2;html=1;shape=mxgraph.flowchart.document2;whiteSpace=wrap;size=0.25;fillColor=#d5e8d4;strokeColor=#82b366;" vertex="1" parent="cy5dHFQ3yvotuSSBNe2O-1">
                    <mxGeometry x="400" y="250" width="80" height="48" as="geometry"/>
                </mxCell>
                <mxCell id="cy5dHFQ3yvotuSSBNe2O-32" value="ChangeUnit" style="strokeWidth=2;html=1;shape=mxgraph.flowchart.document2;whiteSpace=wrap;size=0.25;fillColor=#d5e8d4;strokeColor=#82b366;" vertex="1" parent="cy5dHFQ3yvotuSSBNe2O-1">
                    <mxGeometry x="66.67000000000002" y="240" width="80" height="48" as="geometry"/>
                </mxCell>
                <mxCell id="cy5dHFQ3yvotuSSBNe2O-33" value="ChangeUnit" style="strokeWidth=2;html=1;shape=mxgraph.flowchart.document2;whiteSpace=wrap;size=0.25;fillColor=#d5e8d4;strokeColor=#82b366;" vertex="1" parent="cy5dHFQ3yvotuSSBNe2O-1">
                    <mxGeometry x="76.67000000000002" y="250" width="80" height="48" as="geometry"/>
                </mxCell>
                <mxCell id="cy5dHFQ3yvotuSSBNe2O-34" value="ChangeUnit" style="strokeWidth=2;html=1;shape=mxgraph.flowchart.document2;whiteSpace=wrap;size=0.25;fillColor=#d5e8d4;strokeColor=#82b366;" vertex="1" parent="cy5dHFQ3yvotuSSBNe2O-1">
                    <mxGeometry x="224.99" y="240" width="80" height="48" as="geometry"/>
                </mxCell>
                <mxCell id="cy5dHFQ3yvotuSSBNe2O-35" value="ChangeUnit" style="strokeWidth=2;html=1;shape=mxgraph.flowchart.document2;whiteSpace=wrap;size=0.25;fillColor=#d5e8d4;strokeColor=#82b366;" vertex="1" parent="cy5dHFQ3yvotuSSBNe2O-1">
                    <mxGeometry x="235.00000000000003" y="250" width="80" height="48" as="geometry"/>
                </mxCell>
                <mxCell id="cy5dHFQ3yvotuSSBNe2O-36" style="edgeStyle=none;html=1;entryX=0;entryY=0.5;entryDx=0;entryDy=0;entryPerimeter=0;" edge="1" parent="cy5dHFQ3yvotuSSBNe2O-1">
                    <mxGeometry relative="1" as="geometry">
                        <mxPoint x="160" y="265" as="sourcePoint"/>
                        <mxPoint x="223.32999999999993" y="265" as="targetPoint"/>
                    </mxGeometry>
                </mxCell>
                <mxCell id="cy5dHFQ3yvotuSSBNe2O-41" style="edgeStyle=orthogonalEdgeStyle;html=1;exitX=0.375;exitY=0.927;exitDx=0;exitDy=0;exitPerimeter=0;dashed=1;entryX=0.599;entryY=0.063;entryDx=0;entryDy=0;entryPerimeter=0;" edge="1" parent="cy5dHFQ3yvotuSSBNe2O-1" source="cy5dHFQ3yvotuSSBNe2O-35">
                    <mxGeometry relative="1" as="geometry">
                        <mxPoint x="111" y="304" as="sourcePoint"/>
                        <mxPoint x="251.03150000000005" y="452.52" as="targetPoint"/>
                        <Array as="points">
                            <mxPoint x="265" y="396"/>
                            <mxPoint x="251" y="396"/>
                        </Array>
                    </mxGeometry>
                </mxCell>
                <mxCell id="cy5dHFQ3yvotuSSBNe2O-42" value="Create toggle&amp;nbsp;" style="edgeLabel;html=1;align=center;verticalAlign=middle;resizable=0;points=[];" vertex="1" connectable="0" parent="cy5dHFQ3yvotuSSBNe2O-41">
                    <mxGeometry x="0.586" y="1" relative="1" as="geometry">
                        <mxPoint as="offset"/>
                    </mxGeometry>
                </mxCell>
                <mxCell id="cy5dHFQ3yvotuSSBNe2O-43" style="edgeStyle=orthogonalEdgeStyle;html=1;exitX=0.25;exitY=0.979;exitDx=0;exitDy=0;exitPerimeter=0;dashed=1;entryX=0.5;entryY=0;entryDx=0;entryDy=0;" edge="1" parent="cy5dHFQ3yvotuSSBNe2O-1" source="cy5dHFQ3yvotuSSBNe2O-31">
                    <mxGeometry relative="1" as="geometry">
                        <mxPoint x="275" y="304" as="sourcePoint"/>
                        <mxPoint x="419" y="457.9899999999998" as="targetPoint"/>
                        <Array as="points">
                            <mxPoint x="420" y="406"/>
                            <mxPoint x="419" y="406"/>
                        </Array>
                    </mxGeometry>
                </mxCell>
                <mxCell id="cy5dHFQ3yvotuSSBNe2O-44" value="Update config" style="edgeLabel;html=1;align=center;verticalAlign=middle;resizable=0;points=[];" vertex="1" connectable="0" parent="cy5dHFQ3yvotuSSBNe2O-43">
                    <mxGeometry x="0.586" y="1" relative="1" as="geometry">
                        <mxPoint as="offset"/>
                    </mxGeometry>
                </mxCell>
                <mxCell id="oXcQu1iTH6km2QAAxXQ6-0" value="Amazon API Gateway" style="sketch=0;outlineConnect=0;fontColor=#232F3E;gradientColor=none;strokeColor=#ffffff;fillColor=#232F3E;dashed=0;verticalLabelPosition=middle;verticalAlign=bottom;align=center;html=1;whiteSpace=wrap;fontSize=10;fontStyle=1;spacing=3;shape=mxgraph.aws4.productIcon;prIcon=mxgraph.aws4.api_gateway;" vertex="1" parent="cy5dHFQ3yvotuSSBNe2O-1">
                    <mxGeometry x="378" y="460" width="80" height="110" as="geometry"/>
                </mxCell>
                <mxCell id="oXcQu1iTH6km2QAAxXQ6-1" value="&lt;div&gt;&lt;br&gt;&lt;/div&gt;&lt;div&gt;&lt;br&gt;&lt;/div&gt;&lt;div&gt;&lt;br&gt;&lt;/div&gt;&lt;div&gt;&lt;br&gt;&lt;/div&gt;&lt;div&gt;&lt;br&gt;&lt;/div&gt;&lt;b&gt;Kafka Schema&lt;/b&gt;" style="points=[];aspect=fixed;html=1;align=center;shadow=0;dashed=0;fillColor=#FF6A00;strokeColor=none;shape=mxgraph.alibaba_cloud.kafka;" vertex="1" parent="cy5dHFQ3yvotuSSBNe2O-1">
                    <mxGeometry x="216" y="455" width="56.699999999999996" height="42" as="geometry"/>
                </mxCell>
                <mxCell id="oXcQu1iTH6km2QAAxXQ6-2" value="&lt;b&gt;Database&lt;/b&gt;" style="shape=datastore;whiteSpace=wrap;html=1;rounded=1;shadow=0;glass=0;strokeColor=light-dark(#fa877c, #ededed);strokeWidth=2;align=center;verticalAlign=top;arcSize=5;fontFamily=Helvetica;fontSize=12;fontColor=default;fillColor=default;" vertex="1" parent="cy5dHFQ3yvotuSSBNe2O-1">
                    <mxGeometry x="58" y="453" width="56.18" height="67" as="geometry"/>
                </mxCell>
            </root>
        </mxGraphModel>
    </diagram>
    <diagram id="_d4iiHDUKn5j1GzIiRIQ" name="Flamingock Example 1">
        <mxGraphModel dx="1994" dy="1996" grid="1" gridSize="10" guides="1" tooltips="1" connect="1" arrows="1" fold="1" page="1" pageScale="1" pageWidth="827" pageHeight="1169" math="0" shadow="0">
            <root>
                <mxCell id="0"/>
                <mxCell id="1" parent="0"/>
                <mxCell id="1Sz_bdeDuII3_V8UGqlA-20" value="&lt;b&gt;Feature Toggle API&lt;/b&gt;" style="html=1;verticalLabelPosition=bottom;align=center;labelBackgroundColor=#ffffff;verticalAlign=top;strokeWidth=2;strokeColor=#0080F0;shadow=0;dashed=0;shape=mxgraph.ios7.icons.cloud;" vertex="1" parent="1">
                    <mxGeometry x="210" y="450" width="68.5" height="40" as="geometry"/>
                </mxCell>
                <mxCell id="iIwLI5YFguYqz7nky8BB-4" value="&lt;b&gt;&lt;i&gt;Your Application&lt;/i&gt;&lt;/b&gt;" style="rounded=1;whiteSpace=wrap;html=1;arcSize=3;verticalAlign=top;fontSize=16;fillColor=#f5f5f5;fontColor=#333333;strokeColor=#666666;" vertex="1" parent="1">
                    <mxGeometry x="-30" y="100" width="750" height="305" as="geometry"/>
                </mxCell>
                <mxCell id="1Sz_bdeDuII3_V8UGqlA-3" value="Workflow / Pipeline (YAML)" style="rounded=1;whiteSpace=wrap;html=1;verticalAlign=top;fontStyle=3;fillColor=#f9f7ed;strokeColor=#36393d;sketch=1;curveFitting=1;jiggle=2;" vertex="1" parent="1">
                    <mxGeometry x="-10" y="150" width="590" height="170" as="geometry"/>
                </mxCell>
                <mxCell id="iIwLI5YFguYqz7nky8BB-1" value="" style="rounded=1;whiteSpace=wrap;html=1;arcSize=7;glass=1;" vertex="1" parent="1">
                    <mxGeometry x="-30" y="-10" width="650" height="100" as="geometry"/>
                </mxCell>
                <mxCell id="iIwLI5YFguYqz7nky8BB-5" value="&lt;b&gt;&lt;i&gt;&lt;font style=&quot;color: rgb(77, 77, 77);&quot;&gt;Flamingock library&amp;nbsp; &amp;nbsp;&lt;/font&gt;&lt;/i&gt;&lt;/b&gt;" style="rounded=1;whiteSpace=wrap;html=1;verticalAlign=middle;shadow=0;glass=0;strokeColor=light-dark(#fa877c, #ededed);strokeWidth=3;align=right;arcSize=4;" vertex="1" parent="1">
                    <mxGeometry x="520" y="336.72" width="170" height="60" as="geometry"/>
                </mxCell>
                <mxCell id="iIwLI5YFguYqz7nky8BB-7" style="edgeStyle=none;html=1;exitX=0.5;exitY=1;exitDx=0;exitDy=0;dashed=1;" edge="1" parent="1" source="iIwLI5YFguYqz7nky8BB-5">
                    <mxGeometry relative="1" as="geometry">
                        <mxPoint x="605" y="446.72" as="targetPoint"/>
                        <mxPoint x="614" y="368.72" as="sourcePoint"/>
                    </mxGeometry>
                </mxCell>
                <mxCell id="iIwLI5YFguYqz7nky8BB-52" style="edgeStyle=orthogonalEdgeStyle;html=1;exitX=0.637;exitY=0.764;exitDx=0;exitDy=0;exitPerimeter=0;entryX=0;entryY=0.5;entryDx=0;entryDy=0;" edge="1" parent="1" target="iIwLI5YFguYqz7nky8BB-5">
                    <mxGeometry relative="1" as="geometry">
                        <mxPoint x="276.41121" y="278.1999999999998" as="sourcePoint"/>
                        <Array as="points">
                            <mxPoint x="280" y="367"/>
                        </Array>
                    </mxGeometry>
                </mxCell>
                <mxCell id="iIwLI5YFguYqz7nky8BB-15" value="" style="shape=image;verticalLabelPosition=bottom;labelBackgroundColor=default;verticalAlign=top;aspect=fixed;imageAspect=0;image=data:image/svg+xml,PHN2ZyB4bWxuczp4bGluaz0iaHR0cDovL3d3dy53My5vcmcvMTk5OS94bGluayIgeG1sbnM9Imh0dHA6Ly93d3cudzMub3JnLzIwMDAvc3ZnIiB4bWw6c3BhY2U9InByZXNlcnZlIiBzdHlsZT0iZW5hYmxlLWJhY2tncm91bmQ6bmV3IDAgMCAxMDAwIDEwMDA7IiB2aWV3Qm94PSIwIDAgMTAwMCAxMDAwIiB5PSIwcHgiIHg9IjBweCIgaWQ9IkxheWVyXzEiIHZlcnNpb249IjEuMSI+JiN4YTs8c3R5bGUgdHlwZT0idGV4dC9jc3MiPiYjeGE7CS5zdDB7ZmlsbDojRkE4NzdDO30mI3hhOwkuc3Qxe2ZpbGw6I0VGNjc2MTt9JiN4YTsJLnN0MntmaWxsOiM3Q0Q1QzE7fSYjeGE7CS5zdDN7ZmlsbDojMzUzNTM1O30mI3hhOwkuc3Q0e2ZpbGw6IzVFNUU1RTt9JiN4YTsJLnN0NXtmaWxsOiNGMEQwQzA7fSYjeGE7CS5zdDZ7ZmlsbDojRkZGRkZGO30mI3hhOzwvc3R5bGU+JiN4YTs8Zz4mI3hhOwk8cGF0aCBkPSJNMjc0LjksNjcyLjdoNzUuM2M4LjgsMCwxNS45LDcuMSwxNS45LDE1Ljl2MGMwLDguOC03LjEsMTUuOS0xNS45LDE1LjloLTc1LjNjLTguOCwwLTE1LjktNy4xLTE1LjktMTUuOXYwJiMxMDsmIzk7JiM5O0MyNTksNjc5LjgsMjY2LjEsNjcyLjcsMjc0LjksNjcyLjd6IiBjbGFzcz0ic3QwIi8+JiN4YTsJPHBhdGggZD0iTTI5MS42LDY0MC45aDc1LjNjOC44LDAsMTUuOSw3LjEsMTUuOSwxNS45djBjMCw4LjgtNy4xLDE1LjktMTUuOSwxNS45aC03NS4zYy04LjgsMC0xNS45LTcuMS0xNS45LTE1Ljl2MCYjMTA7JiM5OyYjOTtDMjc1LjcsNjQ4LDI4Mi44LDY0MC45LDI5MS42LDY0MC45eiIgY2xhc3M9InN0MSIvPiYjeGE7CTxwYXRoIGQ9Ik0zMTcsNjA5LjFoNzUuM2M4LjgsMCwxNS45LDcuMSwxNS45LDE1Ljl2MGMwLDguOC03LjEsMTUuOS0xNS45LDE1LjlIMzE3Yy04LjgsMC0xNS45LTcuMS0xNS45LTE1Ljl2MCYjMTA7JiM5OyYjOTtDMzAxLjEsNjE2LjIsMzA4LjIsNjA5LjEsMzE3LDYwOS4xeiIgY2xhc3M9InN0MiIvPiYjeGE7CTxnPiYjeGE7CQk8cGF0aCBkPSJNNTM2LjIsMjk1LjVjMCwwLDEyLjksMjkuMiw4NC40LDI1LjhsLTEyLjUsNTUuMUM2MDguMSwzNzYuNSw1MjIsMzY0LjksNTM2LjIsMjk1LjV6IiBjbGFzcz0ic3QwIi8+JiN4YTsJPC9nPiYjeGE7CTxnPiYjeGE7CQk8cGF0aCBkPSJNNzA1LjksNTI3LjVjMzkuMS0zMCw0Ni43LTg2LDE2LjgtMTI1LjNjLTI5LjktMzkuMy04NS44LTQ3LjEtMTI1LjMtMTcuNUw3MDUuOSw1MjcuNXoiIGNsYXNzPSJzdDQiLz4mI3hhOwk8L2c+JiN4YTsJPGc+JiN4YTsJCTxwYXRoIGQ9Ik03MzEuNyw0MTYuNWMtMi41LTUtNS41LTkuOS05LTE0LjZjLTI5LjktMzkuMy04NS44LTQ3LjEtMTI1LjMtMTcuNGw3Mi4xLDk1JiMxMDsmIzk7JiM5OyYjOTtDNzAxLjcsNDc0LjMsNzI2LjksNDQ4LjgsNzMxLjcsNDE2LjV6IiBjbGFzcz0ic3Q1Ii8+JiN4YTsJPC9nPiYjeGE7CTxnPiYjeGE7CQk8cG9seWdvbiBwb2ludHM9IjU0OS43LDM5Ni4zIDYzOC40LDM2My40IDYzOC40LDU0NS4xIDU0OS43LDU0NS4xIiBjbGFzcz0ic3QwIi8+JiN4YTsJPC9nPiYjeGE7CTxnPiYjeGE7CQk8Y2lyY2xlIHI9Ijc1IiBjeT0iMzk2LjMiIGN4PSI2MjQuNyIgY2xhc3M9InN0MCIvPiYjeGE7CTwvZz4mI3hhOwk8Zz4mI3hhOwkJPGc+JiN4YTsJCQk8Y2lyY2xlIHI9IjM3LjciIGN5PSI0MDYuOSIgY3g9IjYzOC40IiBjbGFzcz0ic3Q2Ii8+JiN4YTsJCTwvZz4mI3hhOwkJPGc+JiN4YTsJCQk8Zz4mI3hhOwkJCQk8Y2lyY2xlIHI9IjE4LjgiIGN5PSI0MDYuOSIgY3g9IjYzOC40IiBjbGFzcz0ic3Q0Ii8+JiN4YTsJCQk8L2c+JiN4YTsJCQk8Zz4mI3hhOwkJCQk8Y2lyY2xlIHI9IjExLjUiIGN5PSIzOTMuMSIgY3g9IjYyOC41IiBjbGFzcz0ic3Q2Ii8+JiN4YTsJCQk8L2c+JiN4YTsJCQk8Zz4mI3hhOwkJCQk8Y2lyY2xlIHI9IjYuMyIgY3k9IjQxMC44IiBjeD0iNjQzLjciIGNsYXNzPSJzdDYiLz4mI3hhOwkJCTwvZz4mI3hhOwkJPC9nPiYjeGE7CTwvZz4mI3hhOwk8Zz4mI3hhOwkJPHBhdGggZD0iTTM0MS44LDcwNC41aDE1NS43Yzc3LjgsMCwxNDAuOS02My4xLDE0MC45LTE0MC45di0xOC41SDUwMS4yQzQxMy4yLDU0NS4xLDM0MS44LDYxNi41LDM0MS44LDcwNC41JiMxMDsmIzk7JiM5OyYjOTtMMzQxLjgsNzA0LjV6IiBjbGFzcz0ic3QwIi8+JiN4YTsJPC9nPiYjeGE7CTxnPiYjeGE7CQk8cGF0aCBkPSJNNTgxLjgsNTY4LjNjMCwwLTIwLjksMTE1LjgtMjIyLjgsNjQuNGMwLDAsMjAuMi00Mi43LDU0LjItNTguMUM0NDcuMiw1NTkuMSw1ODEuOCw1NjguMyw1ODEuOCw1NjguM3oiIGNsYXNzPSJzdDEiLz4mI3hhOwk8L2c+JiN4YTsJPGc+JiN4YTsJCTxwYXRoIGQ9Ik01NjYsNTE2LjZjMzEuOCwzMS44LDE2LjUsODUuOC0yNy4xLDk2LjdjLTU2LDE0LTExNy44LTEtMTYxLjYtNDQuOGMtNjYuNS02Ni41LTY2LjUtMTc0LjIsMC0yNDAuNiYjMTA7JiM5OyYjOTsmIzk7TDU2Niw1MTYuNnoiIGNsYXNzPSJzdDEiLz4mI3hhOwk8L2c+JiN4YTsJPGc+JiN4YTsJCTxwYXRoIGQ9Ik01MjEuNSw0NzIuMWMtMzkuOCwzOS44LTEwNC4zLDM5LjgtMTQ0LDBzLTM5LjgtMTA0LjMsMC0xNDRMNTIxLjUsNDcyLjF6IiBjbGFzcz0ic3QwIi8+JiN4YTsJPC9nPiYjeGE7CTxnPiYjeGE7CQk8Zz4mI3hhOwkJCTxwYXRoIGQ9Ik00OTYuMSw2MzMuOWwtNS45LTAuNGwtMy0wLjJsLTIuOS0wLjRsLTUuOS0wLjdsLTUuOC0xYy0xLTAuMi0xLjktMC4zLTIuOS0wLjVsLTIuOS0wLjYmIzEwOyYjOTsmIzk7JiM5OyYjOTtjLTEuOS0wLjQtMy44LTAuOC01LjgtMS4zbC01LjctMS41Yy0wLjktMC4zLTEuOS0wLjUtMi44LTAuOGwtMi44LTAuOWMtMS45LTAuNi0zLjctMS4yLTUuNi0xLjhsLTUuNS0yLjEmIzEwOyYjOTsmIzk7JiM5OyYjOTtjLTAuOS0wLjQtMS44LTAuNy0yLjctMWwtMi43LTEuMmMtMS44LTAuOC0zLjYtMS41LTUuNC0yLjNsLTUuMy0yLjZjLTAuOS0wLjQtMS44LTAuOC0yLjYtMS4zbC0yLjYtMS40bC01LjEtMi44bC01LTMuMSYjMTA7JiM5OyYjOTsmIzk7JiM5O2MtMjYuMy0xNi41LTQ3LjgtMzkuNy02Mi40LTY2LjNjLTE0LjUtMjYuNy0yMS44LTU2LjgtMjEuMy04Ni41YzAuNS0yOS43LDguNi01OC45LDIzLjItODRjLTEyLjMsMjYuMy0xNy41LDU1LjUtMTUuNCw4My44JiMxMDsmIzk7JiM5OyYjOTsmIzk7YzIuMSwyOC4zLDExLjUsNTUuNywyNi45LDc4LjdjMTUuNCwyMywzNi42LDQxLjgsNjAuNiw1NC4xbDQuNSwyLjNsNC42LDJsMi4zLDFjMC44LDAuMywxLjYsMC42LDIuNCwwLjlsNC43LDEuOCYjMTA7JiM5OyYjOTsmIzk7JiM5O2MxLjYsMC41LDMuMiwxLjEsNC44LDEuNmwyLjQsMC44YzAuOCwwLjMsMS42LDAuNSwyLjQsMC43bDQuOCwxLjNjMS42LDAuNCwzLjMsMC43LDQuOSwxLjFsMi40LDAuNWMwLjgsMC4yLDEuNiwwLjMsMi41LDAuNCYjMTA7JiM5OyYjOTsmIzk7JiM5O2w0LjksMC45bDUsMC42bDIuNSwwLjNjMC44LDAuMSwxLjcsMC4xLDIuNSwwLjJsNSwwLjRsNSwwLjJsMi41LDAuMWwyLjUsMGw0LjktMC4xbDAuNiwwYzguNi0wLjEsMTUuNyw2LjcsMTUuOSwxNS40JiMxMDsmIzk7JiM5OyYjOTsmIzk7YzAuMSw4LjYtNi43LDE1LjctMTUuNCwxNS45QzQ5Nyw2MzQsNDk2LjUsNjM0LDQ5Ni4xLDYzMy45eiIgY2xhc3M9InN0MiIvPiYjeGE7CQk8L2c+JiN4YTsJPC9nPiYjeGE7PC9nPiYjeGE7PC9zdmc+;strokeColor=light-dark(#fa877c, #32a0ff);" vertex="1" parent="1">
                    <mxGeometry x="522.55" y="334.94000000000005" width="61.78" height="61.78" as="geometry"/>
                </mxCell>
                <mxCell id="iIwLI5YFguYqz7nky8BB-16" value="" style="sketch=0;pointerEvents=1;shadow=0;dashed=0;html=1;strokeColor=none;fillColor=light-dark(#4D4D4D,#A8A8A8);labelPosition=center;verticalLabelPosition=bottom;verticalAlign=top;outlineConnect=0;align=center;shape=mxgraph.office.communications.exchange_active_sync;gradientColor=none;" vertex="1" parent="1">
                    <mxGeometry x="520.55" y="338" width="22" height="22" as="geometry"/>
                </mxCell>
                <mxCell id="iIwLI5YFguYqz7nky8BB-25" value="" style="shape=datastore;whiteSpace=wrap;html=1;rounded=1;shadow=0;glass=0;strokeColor=light-dark(#fa877c, #ededed);strokeWidth=2;align=center;verticalAlign=top;arcSize=5;fontFamily=Helvetica;fontSize=12;fontColor=default;fillColor=default;" vertex="1" parent="1">
                    <mxGeometry x="610" y="523.0500000000001" width="30" height="35.78" as="geometry"/>
                </mxCell>
                <mxCell id="iIwLI5YFguYqz7nky8BB-31" value="&lt;b&gt;MongoDB&lt;/b&gt;" style="shape=datastore;whiteSpace=wrap;html=1;rounded=1;shadow=0;glass=0;opacity=70;strokeColor=light-dark(#4D4D4D,#EDEDED);strokeWidth=2;align=right;verticalAlign=middle;arcSize=5;fontFamily=Helvetica;fontSize=12;fontColor=default;fillColor=default;" vertex="1" parent="1">
                    <mxGeometry x="40" y="450" width="90" height="70" as="geometry"/>
                </mxCell>
                <mxCell id="iIwLI5YFguYqz7nky8BB-38" value="" style="rounded=1;whiteSpace=wrap;html=1;fillColor=#d5e8d4;strokeColor=#82b366;" vertex="1" parent="1">
                    <mxGeometry x="-10" y="21" width="40" height="19" as="geometry"/>
                </mxCell>
                <mxCell id="iIwLI5YFguYqz7nky8BB-39" value="" style="rounded=1;whiteSpace=wrap;html=1;fillColor=default;strokeColor=light-dark(#fa877c, #ededed);shadow=0;glass=0;opacity=70;strokeWidth=3;align=center;verticalAlign=top;arcSize=5;fontFamily=Helvetica;fontSize=12;fontColor=default;" vertex="1" parent="1">
                    <mxGeometry x="-10" y="52" width="40" height="19" as="geometry"/>
                </mxCell>
                <mxCell id="iIwLI5YFguYqz7nky8BB-40" value="" style="rounded=1;whiteSpace=wrap;html=1;arcSize=5;verticalAlign=top;fontSize=16;fillColor=#f5f5f5;fontColor=#333333;strokeColor=#666666;" vertex="1" parent="1">
                    <mxGeometry x="270" y="25.5" width="40" height="19" as="geometry"/>
                </mxCell>
                <mxCell id="iIwLI5YFguYqz7nky8BB-41" value="&lt;b&gt;&lt;i&gt;Key&lt;/i&gt;&lt;/b&gt;" style="text;html=1;align=center;verticalAlign=middle;whiteSpace=wrap;rounded=0;" vertex="1" parent="1">
                    <mxGeometry x="-30" y="-10" width="60" height="30" as="geometry"/>
                </mxCell>
                <mxCell id="iIwLI5YFguYqz7nky8BB-42" value="Files to be configured / implemented" style="text;html=1;align=left;verticalAlign=middle;whiteSpace=wrap;rounded=0;" vertex="1" parent="1">
                    <mxGeometry x="40" y="16.5" width="230" height="30" as="geometry"/>
                </mxCell>
                <mxCell id="iIwLI5YFguYqz7nky8BB-43" value="Flamingock components" style="text;html=1;align=left;verticalAlign=middle;whiteSpace=wrap;rounded=0;" vertex="1" parent="1">
                    <mxGeometry x="40" y="51" width="180" height="30" as="geometry"/>
                </mxCell>
                <mxCell id="iIwLI5YFguYqz7nky8BB-44" value="Your application" style="text;html=1;align=left;verticalAlign=middle;whiteSpace=wrap;rounded=0;" vertex="1" parent="1">
                    <mxGeometry x="320" y="21" width="130" height="30" as="geometry"/>
                </mxCell>
                <mxCell id="iIwLI5YFguYqz7nky8BB-23" value="" style="shape=image;verticalLabelPosition=bottom;labelBackgroundColor=default;verticalAlign=top;aspect=fixed;imageAspect=0;image=data:image/svg+xml,PHN2ZyB4bWxuczp4bGluaz0iaHR0cDovL3d3dy53My5vcmcvMTk5OS94bGluayIgeG1sbnM9Imh0dHA6Ly93d3cudzMub3JnLzIwMDAvc3ZnIiB4bWw6c3BhY2U9InByZXNlcnZlIiBzdHlsZT0iZW5hYmxlLWJhY2tncm91bmQ6bmV3IDAgMCAxMDAwIDEwMDA7IiB2aWV3Qm94PSIwIDAgMTAwMCAxMDAwIiB5PSIwcHgiIHg9IjBweCIgaWQ9IkxheWVyXzEiIHZlcnNpb249IjEuMSI+JiN4YTs8c3R5bGUgdHlwZT0idGV4dC9jc3MiPiYjeGE7CS5zdDB7ZmlsbDojRkE4NzdDO30mI3hhOwkuc3Qxe2ZpbGw6I0VGNjc2MTt9JiN4YTsJLnN0MntmaWxsOiM3Q0Q1QzE7fSYjeGE7CS5zdDN7ZmlsbDojMzUzNTM1O30mI3hhOwkuc3Q0e2ZpbGw6IzVFNUU1RTt9JiN4YTsJLnN0NXtmaWxsOiNGMEQwQzA7fSYjeGE7CS5zdDZ7ZmlsbDojRkZGRkZGO30mI3hhOzwvc3R5bGU+JiN4YTs8Zz4mI3hhOwk8cGF0aCBkPSJNMjc0LjksNjcyLjdoNzUuM2M4LjgsMCwxNS45LDcuMSwxNS45LDE1Ljl2MGMwLDguOC03LjEsMTUuOS0xNS45LDE1LjloLTc1LjNjLTguOCwwLTE1LjktNy4xLTE1LjktMTUuOXYwJiMxMDsmIzk7JiM5O0MyNTksNjc5LjgsMjY2LjEsNjcyLjcsMjc0LjksNjcyLjd6IiBjbGFzcz0ic3QwIi8+JiN4YTsJPHBhdGggZD0iTTI5MS42LDY0MC45aDc1LjNjOC44LDAsMTUuOSw3LjEsMTUuOSwxNS45djBjMCw4LjgtNy4xLDE1LjktMTUuOSwxNS45aC03NS4zYy04LjgsMC0xNS45LTcuMS0xNS45LTE1Ljl2MCYjMTA7JiM5OyYjOTtDMjc1LjcsNjQ4LDI4Mi44LDY0MC45LDI5MS42LDY0MC45eiIgY2xhc3M9InN0MSIvPiYjeGE7CTxwYXRoIGQ9Ik0zMTcsNjA5LjFoNzUuM2M4LjgsMCwxNS45LDcuMSwxNS45LDE1Ljl2MGMwLDguOC03LjEsMTUuOS0xNS45LDE1LjlIMzE3Yy04LjgsMC0xNS45LTcuMS0xNS45LTE1Ljl2MCYjMTA7JiM5OyYjOTtDMzAxLjEsNjE2LjIsMzA4LjIsNjA5LjEsMzE3LDYwOS4xeiIgY2xhc3M9InN0MiIvPiYjeGE7CTxnPiYjeGE7CQk8cGF0aCBkPSJNNTM2LjIsMjk1LjVjMCwwLDEyLjksMjkuMiw4NC40LDI1LjhsLTEyLjUsNTUuMUM2MDguMSwzNzYuNSw1MjIsMzY0LjksNTM2LjIsMjk1LjV6IiBjbGFzcz0ic3QwIi8+JiN4YTsJPC9nPiYjeGE7CTxnPiYjeGE7CQk8cGF0aCBkPSJNNzA1LjksNTI3LjVjMzkuMS0zMCw0Ni43LTg2LDE2LjgtMTI1LjNjLTI5LjktMzkuMy04NS44LTQ3LjEtMTI1LjMtMTcuNUw3MDUuOSw1MjcuNXoiIGNsYXNzPSJzdDQiLz4mI3hhOwk8L2c+JiN4YTsJPGc+JiN4YTsJCTxwYXRoIGQ9Ik03MzEuNyw0MTYuNWMtMi41LTUtNS41LTkuOS05LTE0LjZjLTI5LjktMzkuMy04NS44LTQ3LjEtMTI1LjMtMTcuNGw3Mi4xLDk1JiMxMDsmIzk7JiM5OyYjOTtDNzAxLjcsNDc0LjMsNzI2LjksNDQ4LjgsNzMxLjcsNDE2LjV6IiBjbGFzcz0ic3Q1Ii8+JiN4YTsJPC9nPiYjeGE7CTxnPiYjeGE7CQk8cG9seWdvbiBwb2ludHM9IjU0OS43LDM5Ni4zIDYzOC40LDM2My40IDYzOC40LDU0NS4xIDU0OS43LDU0NS4xIiBjbGFzcz0ic3QwIi8+JiN4YTsJPC9nPiYjeGE7CTxnPiYjeGE7CQk8Y2lyY2xlIHI9Ijc1IiBjeT0iMzk2LjMiIGN4PSI2MjQuNyIgY2xhc3M9InN0MCIvPiYjeGE7CTwvZz4mI3hhOwk8Zz4mI3hhOwkJPGc+JiN4YTsJCQk8Y2lyY2xlIHI9IjM3LjciIGN5PSI0MDYuOSIgY3g9IjYzOC40IiBjbGFzcz0ic3Q2Ii8+JiN4YTsJCTwvZz4mI3hhOwkJPGc+JiN4YTsJCQk8Zz4mI3hhOwkJCQk8Y2lyY2xlIHI9IjE4LjgiIGN5PSI0MDYuOSIgY3g9IjYzOC40IiBjbGFzcz0ic3Q0Ii8+JiN4YTsJCQk8L2c+JiN4YTsJCQk8Zz4mI3hhOwkJCQk8Y2lyY2xlIHI9IjExLjUiIGN5PSIzOTMuMSIgY3g9IjYyOC41IiBjbGFzcz0ic3Q2Ii8+JiN4YTsJCQk8L2c+JiN4YTsJCQk8Zz4mI3hhOwkJCQk8Y2lyY2xlIHI9IjYuMyIgY3k9IjQxMC44IiBjeD0iNjQzLjciIGNsYXNzPSJzdDYiLz4mI3hhOwkJCTwvZz4mI3hhOwkJPC9nPiYjeGE7CTwvZz4mI3hhOwk8Zz4mI3hhOwkJPHBhdGggZD0iTTM0MS44LDcwNC41aDE1NS43Yzc3LjgsMCwxNDAuOS02My4xLDE0MC45LTE0MC45di0xOC41SDUwMS4yQzQxMy4yLDU0NS4xLDM0MS44LDYxNi41LDM0MS44LDcwNC41JiMxMDsmIzk7JiM5OyYjOTtMMzQxLjgsNzA0LjV6IiBjbGFzcz0ic3QwIi8+JiN4YTsJPC9nPiYjeGE7CTxnPiYjeGE7CQk8cGF0aCBkPSJNNTgxLjgsNTY4LjNjMCwwLTIwLjksMTE1LjgtMjIyLjgsNjQuNGMwLDAsMjAuMi00Mi43LDU0LjItNTguMUM0NDcuMiw1NTkuMSw1ODEuOCw1NjguMyw1ODEuOCw1NjguM3oiIGNsYXNzPSJzdDEiLz4mI3hhOwk8L2c+JiN4YTsJPGc+JiN4YTsJCTxwYXRoIGQ9Ik01NjYsNTE2LjZjMzEuOCwzMS44LDE2LjUsODUuOC0yNy4xLDk2LjdjLTU2LDE0LTExNy44LTEtMTYxLjYtNDQuOGMtNjYuNS02Ni41LTY2LjUtMTc0LjIsMC0yNDAuNiYjMTA7JiM5OyYjOTsmIzk7TDU2Niw1MTYuNnoiIGNsYXNzPSJzdDEiLz4mI3hhOwk8L2c+JiN4YTsJPGc+JiN4YTsJCTxwYXRoIGQ9Ik01MjEuNSw0NzIuMWMtMzkuOCwzOS44LTEwNC4zLDM5LjgtMTQ0LDBzLTM5LjgtMTA0LjMsMC0xNDRMNTIxLjUsNDcyLjF6IiBjbGFzcz0ic3QwIi8+JiN4YTsJPC9nPiYjeGE7CTxnPiYjeGE7CQk8Zz4mI3hhOwkJCTxwYXRoIGQ9Ik00OTYuMSw2MzMuOWwtNS45LTAuNGwtMy0wLjJsLTIuOS0wLjRsLTUuOS0wLjdsLTUuOC0xYy0xLTAuMi0xLjktMC4zLTIuOS0wLjVsLTIuOS0wLjYmIzEwOyYjOTsmIzk7JiM5OyYjOTtjLTEuOS0wLjQtMy44LTAuOC01LjgtMS4zbC01LjctMS41Yy0wLjktMC4zLTEuOS0wLjUtMi44LTAuOGwtMi44LTAuOWMtMS45LTAuNi0zLjctMS4yLTUuNi0xLjhsLTUuNS0yLjEmIzEwOyYjOTsmIzk7JiM5OyYjOTtjLTAuOS0wLjQtMS44LTAuNy0yLjctMWwtMi43LTEuMmMtMS44LTAuOC0zLjYtMS41LTUuNC0yLjNsLTUuMy0yLjZjLTAuOS0wLjQtMS44LTAuOC0yLjYtMS4zbC0yLjYtMS40bC01LjEtMi44bC01LTMuMSYjMTA7JiM5OyYjOTsmIzk7JiM5O2MtMjYuMy0xNi41LTQ3LjgtMzkuNy02Mi40LTY2LjNjLTE0LjUtMjYuNy0yMS44LTU2LjgtMjEuMy04Ni41YzAuNS0yOS43LDguNi01OC45LDIzLjItODRjLTEyLjMsMjYuMy0xNy41LDU1LjUtMTUuNCw4My44JiMxMDsmIzk7JiM5OyYjOTsmIzk7YzIuMSwyOC4zLDExLjUsNTUuNywyNi45LDc4LjdjMTUuNCwyMywzNi42LDQxLjgsNjAuNiw1NC4xbDQuNSwyLjNsNC42LDJsMi4zLDFjMC44LDAuMywxLjYsMC42LDIuNCwwLjlsNC43LDEuOCYjMTA7JiM5OyYjOTsmIzk7JiM5O2MxLjYsMC41LDMuMiwxLjEsNC44LDEuNmwyLjQsMC44YzAuOCwwLjMsMS42LDAuNSwyLjQsMC43bDQuOCwxLjNjMS42LDAuNCwzLjMsMC43LDQuOSwxLjFsMi40LDAuNWMwLjgsMC4yLDEuNiwwLjMsMi41LDAuNCYjMTA7JiM5OyYjOTsmIzk7JiM5O2w0LjksMC45bDUsMC42bDIuNSwwLjNjMC44LDAuMSwxLjcsMC4xLDIuNSwwLjJsNSwwLjRsNSwwLjJsMi41LDAuMWwyLjUsMGw0LjktMC4xbDAuNiwwYzguNi0wLjEsMTUuNyw2LjcsMTUuOSwxNS40JiMxMDsmIzk7JiM5OyYjOTsmIzk7YzAuMSw4LjYtNi43LDE1LjctMTUuNCwxNS45QzQ5Nyw2MzQsNDk2LjUsNjM0LDQ5Ni4xLDYzMy45eiIgY2xhc3M9InN0MiIvPiYjeGE7CQk8L2c+JiN4YTsJPC9nPiYjeGE7PC9nPiYjeGE7PC9zdmc+;strokeColor=light-dark(#fa877c, #32a0ff);" vertex="1" parent="1">
                    <mxGeometry x="520" y="424.22" width="150" height="150" as="geometry"/>
                </mxCell>
                <mxCell id="iIwLI5YFguYqz7nky8BB-53" style="edgeStyle=orthogonalEdgeStyle;html=1;exitX=0.631;exitY=0.75;exitDx=0;exitDy=0;exitPerimeter=0;entryX=0;entryY=0.5;entryDx=0;entryDy=0;" edge="1" parent="1" source="iIwLI5YFguYqz7nky8BB-12" target="iIwLI5YFguYqz7nky8BB-5">
                    <mxGeometry relative="1" as="geometry">
                        <mxPoint x="217" y="293" as="sourcePoint"/>
                        <mxPoint x="320" y="377" as="targetPoint"/>
                        <Array as="points">
                            <mxPoint x="437" y="367"/>
                        </Array>
                    </mxGeometry>
                </mxCell>
                <mxCell id="iIwLI5YFguYqz7nky8BB-54" value="&lt;b&gt;Stage:&amp;nbsp;&lt;/b&gt;&lt;div&gt;&lt;b&gt;Mongo changes&lt;/b&gt;&lt;/div&gt;" style="rounded=1;whiteSpace=wrap;html=1;verticalAlign=top;sketch=1;curveFitting=1;jiggle=2;fillColor=#fff2cc;strokeColor=#d6b656;" vertex="1" parent="1">
                    <mxGeometry x="30" y="197.5" width="153.33" height="110" as="geometry"/>
                </mxCell>
                <mxCell id="1Sz_bdeDuII3_V8UGqlA-4" style="edgeStyle=orthogonalEdgeStyle;html=1;exitX=0.304;exitY=0.927;exitDx=0;exitDy=0;exitPerimeter=0;dashed=1;" edge="1" parent="1" source="1Sz_bdeDuII3_V8UGqlA-11" target="iIwLI5YFguYqz7nky8BB-31">
                    <mxGeometry relative="1" as="geometry">
                        <mxPoint x="60" y="278.5" as="sourcePoint"/>
                        <Array as="points">
                            <mxPoint x="101" y="386"/>
                            <mxPoint x="85" y="386"/>
                        </Array>
                    </mxGeometry>
                </mxCell>
                <mxCell id="1Sz_bdeDuII3_V8UGqlA-14" value="Apply ChangeUnit to add a field" style="edgeLabel;html=1;align=center;verticalAlign=middle;resizable=0;points=[];" vertex="1" connectable="0" parent="1Sz_bdeDuII3_V8UGqlA-4">
                    <mxGeometry x="0.586" y="1" relative="1" as="geometry">
                        <mxPoint as="offset"/>
                    </mxGeometry>
                </mxCell>
                <mxCell id="iIwLI5YFguYqz7nky8BB-51" style="edgeStyle=orthogonalEdgeStyle;html=1;exitX=0.546;exitY=0.893;exitDx=0;exitDy=0;exitPerimeter=0;entryX=0;entryY=0.5;entryDx=0;entryDy=0;" edge="1" parent="1" target="iIwLI5YFguYqz7nky8BB-5">
                    <mxGeometry relative="1" as="geometry">
                        <mxPoint x="109.1400000000001" y="286.2220000000002" as="sourcePoint"/>
                        <Array as="points">
                            <mxPoint x="109" y="367"/>
                        </Array>
                    </mxGeometry>
                </mxCell>
                <mxCell id="1Sz_bdeDuII3_V8UGqlA-1" value="" style="dashed=0;outlineConnect=0;html=1;align=center;labelPosition=center;verticalLabelPosition=bottom;verticalAlign=top;shape=mxgraph.weblogos.mongodb" vertex="1" parent="1">
                    <mxGeometry x="50" y="482.99" width="12.88" height="26.95" as="geometry"/>
                </mxCell>
                <mxCell id="1Sz_bdeDuII3_V8UGqlA-5" value="&lt;b&gt;Stage:&amp;nbsp;&lt;/b&gt;&lt;div&gt;&lt;b&gt;Feature toggle changes&lt;/b&gt;&lt;/div&gt;" style="rounded=1;whiteSpace=wrap;html=1;verticalAlign=top;sketch=1;curveFitting=1;jiggle=2;fillColor=#fff2cc;strokeColor=#d6b656;" vertex="1" parent="1">
                    <mxGeometry x="188.33" y="197.5" width="153.33" height="110" as="geometry"/>
                </mxCell>
                <mxCell id="1Sz_bdeDuII3_V8UGqlA-6" value="&lt;b&gt;Stage:&amp;nbsp;&lt;/b&gt;&lt;div&gt;&lt;b&gt;Secret Manager changes&lt;/b&gt;&lt;/div&gt;" style="rounded=1;whiteSpace=wrap;html=1;verticalAlign=top;sketch=1;curveFitting=1;jiggle=2;fillColor=#fff2cc;strokeColor=#d6b656;" vertex="1" parent="1">
                    <mxGeometry x="345" y="197.5" width="153.33" height="110" as="geometry"/>
                </mxCell>
                <mxCell id="iIwLI5YFguYqz7nky8BB-12" value="ChangeUnit" style="strokeWidth=2;html=1;shape=mxgraph.flowchart.document2;whiteSpace=wrap;size=0.25;fillColor=#d5e8d4;strokeColor=#82b366;" vertex="1" parent="1">
                    <mxGeometry x="390" y="240" width="80" height="48" as="geometry"/>
                </mxCell>
                <mxCell id="iIwLI5YFguYqz7nky8BB-50" style="edgeStyle=none;html=1;exitX=1;exitY=0.5;exitDx=0;exitDy=0;exitPerimeter=0;entryX=0;entryY=0.5;entryDx=0;entryDy=0;entryPerimeter=0;" edge="1" parent="1" target="iIwLI5YFguYqz7nky8BB-12">
                    <mxGeometry relative="1" as="geometry">
                        <mxPoint x="306.65999999999985" y="265" as="sourcePoint"/>
                    </mxGeometry>
                </mxCell>
                <mxCell id="1Sz_bdeDuII3_V8UGqlA-9" value="ChangeUnit" style="strokeWidth=2;html=1;shape=mxgraph.flowchart.document2;whiteSpace=wrap;size=0.25;fillColor=#d5e8d4;strokeColor=#82b366;" vertex="1" parent="1">
                    <mxGeometry x="400" y="250" width="80" height="48" as="geometry"/>
                </mxCell>
                <mxCell id="1Sz_bdeDuII3_V8UGqlA-10" value="ChangeUnit" style="strokeWidth=2;html=1;shape=mxgraph.flowchart.document2;whiteSpace=wrap;size=0.25;fillColor=#d5e8d4;strokeColor=#82b366;" vertex="1" parent="1">
                    <mxGeometry x="66.67000000000002" y="240" width="80" height="48" as="geometry"/>
                </mxCell>
                <mxCell id="1Sz_bdeDuII3_V8UGqlA-11" value="ChangeUnit" style="strokeWidth=2;html=1;shape=mxgraph.flowchart.document2;whiteSpace=wrap;size=0.25;fillColor=#d5e8d4;strokeColor=#82b366;" vertex="1" parent="1">
                    <mxGeometry x="76.67000000000002" y="250" width="80" height="48" as="geometry"/>
                </mxCell>
                <mxCell id="1Sz_bdeDuII3_V8UGqlA-12" value="ChangeUnit" style="strokeWidth=2;html=1;shape=mxgraph.flowchart.document2;whiteSpace=wrap;size=0.25;fillColor=#d5e8d4;strokeColor=#82b366;" vertex="1" parent="1">
                    <mxGeometry x="224.99" y="240" width="80" height="48" as="geometry"/>
                </mxCell>
                <mxCell id="1Sz_bdeDuII3_V8UGqlA-13" value="ChangeUnit" style="strokeWidth=2;html=1;shape=mxgraph.flowchart.document2;whiteSpace=wrap;size=0.25;fillColor=#d5e8d4;strokeColor=#82b366;" vertex="1" parent="1">
                    <mxGeometry x="235.00000000000003" y="250" width="80" height="48" as="geometry"/>
                </mxCell>
                <mxCell id="iIwLI5YFguYqz7nky8BB-49" style="edgeStyle=none;html=1;entryX=0;entryY=0.5;entryDx=0;entryDy=0;entryPerimeter=0;" edge="1" parent="1">
                    <mxGeometry relative="1" as="geometry">
                        <mxPoint x="160" y="265" as="sourcePoint"/>
                        <mxPoint x="223.32999999999993" y="265" as="targetPoint"/>
                    </mxGeometry>
                </mxCell>
                <mxCell id="1Sz_bdeDuII3_V8UGqlA-16" value="" style="fillColor=#36B37E;strokeColor=none;rounded=1;arcSize=50;sketch=0;hachureGap=4;pointerEvents=0;fontFamily=Architects Daughter;fontSource=https%3A%2F%2Ffonts.googleapis.com%2Fcss%3Ffamily%3DArchitects%2BDaughter;fontSize=20;" vertex="1" parent="1">
                    <mxGeometry x="230.51" y="469.05" width="30" height="16" as="geometry"/>
                </mxCell>
                <mxCell id="1Sz_bdeDuII3_V8UGqlA-17" value="" style="shape=ellipse;strokeColor=none;fillColor=#ffffff;sketch=0;hachureGap=4;pointerEvents=0;fontFamily=Architects Daughter;fontSource=https%3A%2F%2Ffonts.googleapis.com%2Fcss%3Ffamily%3DArchitects%2BDaughter;fontSize=20;" vertex="1" parent="1Sz_bdeDuII3_V8UGqlA-16">
                    <mxGeometry x="1" y="0.5" width="12" height="12" relative="1" as="geometry">
                        <mxPoint x="-14" y="-6" as="offset"/>
                    </mxGeometry>
                </mxCell>
                <mxCell id="1Sz_bdeDuII3_V8UGqlA-18" value="" style="html=1;shadow=0;dashed=0;shape=mxgraph.atlassian.check;strokeColor=#ffffff;sketch=1;hachureGap=4;pointerEvents=0;fontFamily=Architects Daughter;fontSource=https%3A%2F%2Ffonts.googleapis.com%2Fcss%3Ffamily%3DArchitects%2BDaughter;fontSize=20;" vertex="1" parent="1Sz_bdeDuII3_V8UGqlA-16">
                    <mxGeometry y="0.5" width="6" height="5" relative="1" as="geometry">
                        <mxPoint x="4" y="-3" as="offset"/>
                    </mxGeometry>
                </mxCell>
                <mxCell id="1Sz_bdeDuII3_V8UGqlA-22" value="&lt;div&gt;&lt;br&gt;&lt;/div&gt;&lt;font style=&quot;color: rgb(0, 0, 0);&quot;&gt;Secret&lt;br&gt;Manager&lt;/font&gt;" style="sketch=0;html=1;verticalAlign=top;labelPosition=center;verticalLabelPosition=bottom;align=center;spacingTop=-6;fontSize=11;fontStyle=1;fontColor=#999999;shape=image;aspect=fixed;imageAspect=0;image=data:image/svg+xml,PHN2ZyB4bWxucz0iaHR0cDovL3d3dy53My5vcmcvMjAwMC9zdmciIGlkPSJzdmc1MzkzNyIgdmVyc2lvbj0iMS4xIiB2aWV3Qm94PSIwIDAgMTc1LjE2MDYzIDEwNC4yNzczNSIgaGVpZ2h0PSIxMDQuMjc3MzVtbSIgd2lkdGg9IjE3NS4xNjA2M21tIj4mI3hhOyAgPHBhdGggZD0ibSAxMjguNTY5MSwzNC4xMTUyMzYgdiAxMi45Nzg1MTYgbCAtMTIuMzM3ODksLTQuMzgwODYgLTIuNTA5NzcsNy4wNjgzNiAxMi41NDEwMiw0LjQ1MzEyNSAtOC41NjA1NSwxMS40MzE2NCA2LjAwMTk2LDQuNDk2MDk0IDguNTk5NjEsLTExLjQ4MDQ2OSA4LjQ5NDE0LDExLjQ2NDg0NCA2LjAyNzM0LC00LjQ2NDg0NCAtOC40NzI2NiwtMTEuNDMzNTkzIDEyLjY0MDYzLC00LjQ2Njc5NyAtMi41LC03LjA3MDMxMyAtMTIuNDIzODMsNC4zOTA2MjUgViAzNC4xMTUyMzYgWiBtIC00NC43NzY4NzIsMCB2IDEyLjk3ODUxNiBsIC0xMi4zMzc4OTEsLTQuMzgwODYgLTIuNTA5NzY1LDcuMDY4MzYgMTIuNTQxMDE1LDQuNDUzMTI1IC04LjU2MDU0NywxMS40MzE2NCA2LjAwMTk1Myw0LjQ5NjA5NCA4LjU5OTYxLC0xMS40ODA0NjkgOC40OTQxNCwxMS40NjQ4NDQgNi4wMjczNDcsLTQuNDY0ODQ0IC04LjQ3MjY1OSwtMTEuNDMzNTkzIDEyLjY0MDYyOSwtNC40NjY3OTcgLTIuNSwtNy4wNzAzMTMgLTEyLjQyMzgzMiw0LjM5MDYyNSBWIDM0LjExNTIzNiBaIG0gLTQ0Ljc3Njg1LDAgdiAxMi45Nzg1MTYgbCAtMTIuMzM3ODkxLC00LjM4MDg2IC0yLjUwOTc2NSw3LjA2ODM2IDEyLjU0MTAxNSw0LjQ1MzEyNSAtOC41NjA1NDcsMTEuNDMxNjQgNi4wMDE5NTMsNC40OTYwOTQgOC41OTk2MSwtMTEuNDgwNDY5IDguNDk0MTQsMTEuNDY0ODQ0IDYuMDI3MzQ0LC00LjQ2NDg0NCAtOC40NzI2NTYsLTExLjQzMzU5MyAxMi42NDA2MjUsLTQuNDY2Nzk3IC0yLjUsLTcuMDcwMzEzIC0xMi40MjM4MjgsNC4zOTA2MjUgViAzNC4xMTUyMzYgWiBNIDE3NS4xNjA2NCwxMGUtNyBWIDEwNC4yNzczNCBoIC0zNy4yNzY4MiBjIC0xLjIwODU3LDAgLTIuMDAyNDgsLTAuNjIzNTQgLTIuMDAyNDgsLTEuODY2MzQgdiAtOS45MjcyMzggYyAwLC0xLjE0ODI1IDAuNzE1OTYsLTEuNzA2NDIgMi4wMDI0OCwtMS43MDY0MiBoIDIzLjc3NjgyIFYgMTMuNSBoIC0yMy45NDQ5OCBjIC0xLjQwODU1LDAgLTEuOTUxNTEsLTAuNzUyMzE3IC0xLjk1MTUxLC0yLjA3NDQ4MiBWIDEuODQyNzI2IGMgMCwtMS4yNjU5NzEgMC42OTgwOCwtMS44NDI3MjUgMS45NTE1MSwtMS44NDI3MjUgeiBNIDAsMCB2IDEwNC4yNzczNSBoIDM3LjI3NjgxNCBjIDEuMjA4NTcxLDAgMi4wMDI0ODMsLTAuNjIzNTQgMi4wMDI0ODMsLTEuODY2MzQgdiAtOS45MjcyMzggYyAwLC0xLjE0ODI1IC0wLjcxNTk1NywtMS43MDY0MiAtMi4wMDI0ODMsLTEuNzA2NDIgSCAxMy41IFYgMTMuNDk5OTk5IGggMjMuOTQ0OTczIGMgMS40MDg1NTIsMCAxLjk1MTUxMSwtMC43NTIzMTcgMS45NTE1MTEsLTIuMDc0NDgyIFYgMS44NDI3MjUgQyAzOS4zOTY0ODQsMC41NzY3NTQgMzguNjk4NDEsMCAzNy40NDQ5NzMsMCBaIiBzdHlsZT0iY29sb3I6IzAwMDAwMDtvcGFjaXR5OjE7ZmlsbDojNDI4NWY0O2ZpbGwtb3BhY2l0eToxOy1pbmtzY2FwZS1zdHJva2U6bm9uZSIvPiYjeGE7PC9zdmc+;" vertex="1" parent="1">
                    <mxGeometry x="398" y="457.99" width="42" height="25" as="geometry"/>
                </mxCell>
                <mxCell id="1Sz_bdeDuII3_V8UGqlA-25" style="edgeStyle=orthogonalEdgeStyle;html=1;exitX=0.375;exitY=0.927;exitDx=0;exitDy=0;exitPerimeter=0;dashed=1;entryX=0.599;entryY=0.063;entryDx=0;entryDy=0;entryPerimeter=0;" edge="1" parent="1" source="1Sz_bdeDuII3_V8UGqlA-13" target="1Sz_bdeDuII3_V8UGqlA-20">
                    <mxGeometry relative="1" as="geometry">
                        <mxPoint x="111" y="304" as="sourcePoint"/>
                        <mxPoint x="95" y="460" as="targetPoint"/>
                        <Array as="points">
                            <mxPoint x="265" y="396"/>
                            <mxPoint x="251" y="396"/>
                        </Array>
                    </mxGeometry>
                </mxCell>
                <mxCell id="1Sz_bdeDuII3_V8UGqlA-26" value="Create toggle&amp;nbsp;" style="edgeLabel;html=1;align=center;verticalAlign=middle;resizable=0;points=[];" vertex="1" connectable="0" parent="1Sz_bdeDuII3_V8UGqlA-25">
                    <mxGeometry x="0.586" y="1" relative="1" as="geometry">
                        <mxPoint as="offset"/>
                    </mxGeometry>
                </mxCell>
                <mxCell id="1Sz_bdeDuII3_V8UGqlA-27" style="edgeStyle=orthogonalEdgeStyle;html=1;exitX=0.25;exitY=0.979;exitDx=0;exitDy=0;exitPerimeter=0;dashed=1;entryX=0.5;entryY=0;entryDx=0;entryDy=0;" edge="1" parent="1" source="1Sz_bdeDuII3_V8UGqlA-9" target="1Sz_bdeDuII3_V8UGqlA-22">
                    <mxGeometry relative="1" as="geometry">
                        <mxPoint x="275" y="304" as="sourcePoint"/>
                        <mxPoint x="261" y="463" as="targetPoint"/>
                        <Array as="points">
                            <mxPoint x="420" y="406"/>
                            <mxPoint x="419" y="406"/>
                        </Array>
                    </mxGeometry>
                </mxCell>
                <mxCell id="1Sz_bdeDuII3_V8UGqlA-28" value="Update config" style="edgeLabel;html=1;align=center;verticalAlign=middle;resizable=0;points=[];" vertex="1" connectable="0" parent="1Sz_bdeDuII3_V8UGqlA-27">
                    <mxGeometry x="0.586" y="1" relative="1" as="geometry">
                        <mxPoint as="offset"/>
                    </mxGeometry>
                </mxCell>
            </root>
        </mxGraphModel>
    </diagram>
    <diagram id="rae52zq2sH1Zxz5ztTnv" name="Flamingock HLD">
        <mxGraphModel dx="687" dy="1816" grid="0" gridSize="10" guides="1" tooltips="1" connect="1" arrows="1" fold="1" page="1" pageScale="1" pageWidth="827" pageHeight="1169" math="0" shadow="0">
            <root>
                <mxCell id="0"/>
                <mxCell id="1" parent="0"/>
                <mxCell id="mOgeQCi3F3nQQeEdunfi-40" value="" style="rounded=1;whiteSpace=wrap;html=1;arcSize=7;glass=1;" parent="1" vertex="1">
                    <mxGeometry x="40" y="-30" width="650" height="100" as="geometry"/>
                </mxCell>
                <mxCell id="mOgeQCi3F3nQQeEdunfi-19" value="&lt;b&gt;&lt;i&gt;Flamingock Hosting Editions&lt;/i&gt;&lt;/b&gt;" style="rounded=1;whiteSpace=wrap;html=1;arcSize=5;verticalAlign=top;fontSize=12;fillColor=default;fontColor=default;strokeColor=light-dark(#fa877c, #ededed);shadow=0;glass=0;opacity=70;strokeWidth=3;align=center;fontFamily=Helvetica;" parent="1" vertex="1">
                    <mxGeometry x="360" y="410" width="330" height="200" as="geometry"/>
                </mxCell>
                <mxCell id="mOgeQCi3F3nQQeEdunfi-20" value="&lt;b&gt;&lt;i&gt;Your Components&lt;/i&gt;&lt;/b&gt;" style="rounded=1;whiteSpace=wrap;html=1;arcSize=5;verticalAlign=top;fontSize=16;fillColor=#f5f5f5;fontColor=#333333;strokeColor=#666666;" parent="1" vertex="1">
                    <mxGeometry x="50" y="410" width="300" height="200" as="geometry"/>
                </mxCell>
                <mxCell id="mOgeQCi3F3nQQeEdunfi-1" value="&lt;b&gt;&lt;i&gt;Your Application&lt;/i&gt;&lt;/b&gt;" style="rounded=1;whiteSpace=wrap;html=1;arcSize=5;verticalAlign=top;fontSize=16;fillColor=#f5f5f5;fontColor=#333333;strokeColor=#666666;" parent="1" vertex="1">
                    <mxGeometry x="50" y="90" width="640" height="305" as="geometry"/>
                </mxCell>
                <mxCell id="mOgeQCi3F3nQQeEdunfi-2" value="&lt;b&gt;&lt;i&gt;&lt;font style=&quot;color: rgb(77, 77, 77);&quot;&gt;Flamingock library&amp;nbsp; &amp;nbsp;&lt;/font&gt;&lt;/i&gt;&lt;/b&gt;" style="rounded=1;whiteSpace=wrap;html=1;verticalAlign=top;shadow=0;glass=0;opacity=70;strokeColor=light-dark(#fa877c, #ededed);strokeWidth=3;align=right;arcSize=4;" parent="1" vertex="1">
                    <mxGeometry x="270" y="240" width="340" height="120" as="geometry"/>
                </mxCell>
                <mxCell id="mOgeQCi3F3nQQeEdunfi-3" value="&lt;b&gt;&lt;i&gt;Runner&lt;/i&gt;&lt;/b&gt;" style="shape=module;align=left;spacingLeft=20;align=center;verticalAlign=top;whiteSpace=wrap;html=1;" parent="1" vertex="1">
                    <mxGeometry x="310" y="280" width="110" height="52" as="geometry"/>
                </mxCell>
                <mxCell id="mOgeQCi3F3nQQeEdunfi-5" style="edgeStyle=none;html=1;exitX=0.5;exitY=1;exitDx=0;exitDy=0;entryX=0.529;entryY=-0.005;entryDx=0;entryDy=0;entryPerimeter=0;dashed=1;" parent="1" source="mOgeQCi3F3nQQeEdunfi-6" target="mOgeQCi3F3nQQeEdunfi-19" edge="1">
                    <mxGeometry relative="1" as="geometry">
                        <mxPoint x="522.0231213872833" y="470" as="targetPoint"/>
                    </mxGeometry>
                </mxCell>
                <mxCell id="mOgeQCi3F3nQQeEdunfi-48" value="- Acquires / releases lock&lt;div&gt;- Track changes / rollback&amp;nbsp;&lt;/div&gt;" style="edgeLabel;html=1;align=center;verticalAlign=middle;resizable=0;points=[];" parent="mOgeQCi3F3nQQeEdunfi-5" vertex="1" connectable="0">
                    <mxGeometry x="0.1432" y="2" relative="1" as="geometry">
                        <mxPoint x="-2" as="offset"/>
                    </mxGeometry>
                </mxCell>
                <mxCell id="mOgeQCi3F3nQQeEdunfi-6" value="&lt;b&gt;&lt;i&gt;Drivers&lt;/i&gt;&lt;/b&gt;" style="shape=module;align=left;spacingLeft=20;align=center;verticalAlign=top;whiteSpace=wrap;html=1;" parent="1" vertex="1">
                    <mxGeometry x="484" y="282" width="100" height="50" as="geometry"/>
                </mxCell>
                <mxCell id="mOgeQCi3F3nQQeEdunfi-7" value="" style="strokeWidth=2;html=1;shape=mxgraph.flowchart.document2;whiteSpace=wrap;size=0.25;fillColor=#d5e8d4;strokeColor=#82b366;" parent="1" vertex="1">
                    <mxGeometry x="73.33" y="261" width="116.67" height="70" as="geometry"/>
                </mxCell>
                <mxCell id="mOgeQCi3F3nQQeEdunfi-8" value="" style="strokeWidth=2;html=1;shape=mxgraph.flowchart.document2;whiteSpace=wrap;size=0.25;fillColor=#d5e8d4;strokeColor=#82b366;" parent="1" vertex="1">
                    <mxGeometry x="83.33" y="271" width="116.67" height="70" as="geometry"/>
                </mxCell>
                <mxCell id="mOgeQCi3F3nQQeEdunfi-9" value="ChangeUnit&lt;div&gt;(&amp;lt;&amp;lt;Class&amp;gt;&amp;gt; or YAML)&lt;/div&gt;" style="strokeWidth=2;html=1;shape=mxgraph.flowchart.document2;whiteSpace=wrap;size=0.25;fillColor=#d5e8d4;strokeColor=#82b366;" parent="1" vertex="1">
                    <mxGeometry x="93.33" y="281" width="116.67" height="70" as="geometry"/>
                </mxCell>
                <mxCell id="mOgeQCi3F3nQQeEdunfi-11" style="edgeStyle=none;html=1;exitX=0;exitY=0;exitDx=0;exitDy=35;exitPerimeter=0;entryX=1;entryY=0.5;entryDx=0;entryDy=0;entryPerimeter=0;startArrow=classic;startFill=1;" parent="1" source="mOgeQCi3F3nQQeEdunfi-3" target="mOgeQCi3F3nQQeEdunfi-9" edge="1">
                    <mxGeometry relative="1" as="geometry"/>
                </mxCell>
                <mxCell id="mOgeQCi3F3nQQeEdunfi-46" value="Load&amp;nbsp;&lt;span style=&quot;background-color: light-dark(#ffffff, var(--ge-dark-color, #121212));&quot;&gt;changes,&amp;nbsp;&lt;/span&gt;&lt;div&gt;&lt;span style=&quot;background-color: light-dark(#ffffff, var(--ge-dark-color, #121212));&quot;&gt;acquire lock and&amp;nbsp;&lt;/span&gt;&lt;/div&gt;&lt;div&gt;&lt;span style=&quot;background-color: light-dark(#ffffff, var(--ge-dark-color, #121212));&quot;&gt;track executions&lt;/span&gt;&lt;/div&gt;" style="edgeLabel;html=1;align=center;verticalAlign=middle;resizable=0;points=[];" parent="mOgeQCi3F3nQQeEdunfi-11" vertex="1" connectable="0">
                    <mxGeometry x="0.3603" y="1" relative="1" as="geometry">
                        <mxPoint x="15" y="21" as="offset"/>
                    </mxGeometry>
                </mxCell>
                <mxCell id="mOgeQCi3F3nQQeEdunfi-12" value="" style="shape=image;verticalLabelPosition=bottom;labelBackgroundColor=default;verticalAlign=top;aspect=fixed;imageAspect=0;image=data:image/svg+xml,PHN2ZyB4bWxuczp4bGluaz0iaHR0cDovL3d3dy53My5vcmcvMTk5OS94bGluayIgeG1sbnM9Imh0dHA6Ly93d3cudzMub3JnLzIwMDAvc3ZnIiB4bWw6c3BhY2U9InByZXNlcnZlIiBzdHlsZT0iZW5hYmxlLWJhY2tncm91bmQ6bmV3IDAgMCAxMDAwIDEwMDA7IiB2aWV3Qm94PSIwIDAgMTAwMCAxMDAwIiB5PSIwcHgiIHg9IjBweCIgaWQ9IkxheWVyXzEiIHZlcnNpb249IjEuMSI+JiN4YTs8c3R5bGUgdHlwZT0idGV4dC9jc3MiPiYjeGE7CS5zdDB7ZmlsbDojRkE4NzdDO30mI3hhOwkuc3Qxe2ZpbGw6I0VGNjc2MTt9JiN4YTsJLnN0MntmaWxsOiM3Q0Q1QzE7fSYjeGE7CS5zdDN7ZmlsbDojMzUzNTM1O30mI3hhOwkuc3Q0e2ZpbGw6IzVFNUU1RTt9JiN4YTsJLnN0NXtmaWxsOiNGMEQwQzA7fSYjeGE7CS5zdDZ7ZmlsbDojRkZGRkZGO30mI3hhOzwvc3R5bGU+JiN4YTs8Zz4mI3hhOwk8cGF0aCBkPSJNMjc0LjksNjcyLjdoNzUuM2M4LjgsMCwxNS45LDcuMSwxNS45LDE1Ljl2MGMwLDguOC03LjEsMTUuOS0xNS45LDE1LjloLTc1LjNjLTguOCwwLTE1LjktNy4xLTE1LjktMTUuOXYwJiMxMDsmIzk7JiM5O0MyNTksNjc5LjgsMjY2LjEsNjcyLjcsMjc0LjksNjcyLjd6IiBjbGFzcz0ic3QwIi8+JiN4YTsJPHBhdGggZD0iTTI5MS42LDY0MC45aDc1LjNjOC44LDAsMTUuOSw3LjEsMTUuOSwxNS45djBjMCw4LjgtNy4xLDE1LjktMTUuOSwxNS45aC03NS4zYy04LjgsMC0xNS45LTcuMS0xNS45LTE1Ljl2MCYjMTA7JiM5OyYjOTtDMjc1LjcsNjQ4LDI4Mi44LDY0MC45LDI5MS42LDY0MC45eiIgY2xhc3M9InN0MSIvPiYjeGE7CTxwYXRoIGQ9Ik0zMTcsNjA5LjFoNzUuM2M4LjgsMCwxNS45LDcuMSwxNS45LDE1Ljl2MGMwLDguOC03LjEsMTUuOS0xNS45LDE1LjlIMzE3Yy04LjgsMC0xNS45LTcuMS0xNS45LTE1Ljl2MCYjMTA7JiM5OyYjOTtDMzAxLjEsNjE2LjIsMzA4LjIsNjA5LjEsMzE3LDYwOS4xeiIgY2xhc3M9InN0MiIvPiYjeGE7CTxnPiYjeGE7CQk8cGF0aCBkPSJNNTM2LjIsMjk1LjVjMCwwLDEyLjksMjkuMiw4NC40LDI1LjhsLTEyLjUsNTUuMUM2MDguMSwzNzYuNSw1MjIsMzY0LjksNTM2LjIsMjk1LjV6IiBjbGFzcz0ic3QwIi8+JiN4YTsJPC9nPiYjeGE7CTxnPiYjeGE7CQk8cGF0aCBkPSJNNzA1LjksNTI3LjVjMzkuMS0zMCw0Ni43LTg2LDE2LjgtMTI1LjNjLTI5LjktMzkuMy04NS44LTQ3LjEtMTI1LjMtMTcuNUw3MDUuOSw1MjcuNXoiIGNsYXNzPSJzdDQiLz4mI3hhOwk8L2c+JiN4YTsJPGc+JiN4YTsJCTxwYXRoIGQ9Ik03MzEuNyw0MTYuNWMtMi41LTUtNS41LTkuOS05LTE0LjZjLTI5LjktMzkuMy04NS44LTQ3LjEtMTI1LjMtMTcuNGw3Mi4xLDk1JiMxMDsmIzk7JiM5OyYjOTtDNzAxLjcsNDc0LjMsNzI2LjksNDQ4LjgsNzMxLjcsNDE2LjV6IiBjbGFzcz0ic3Q1Ii8+JiN4YTsJPC9nPiYjeGE7CTxnPiYjeGE7CQk8cG9seWdvbiBwb2ludHM9IjU0OS43LDM5Ni4zIDYzOC40LDM2My40IDYzOC40LDU0NS4xIDU0OS43LDU0NS4xIiBjbGFzcz0ic3QwIi8+JiN4YTsJPC9nPiYjeGE7CTxnPiYjeGE7CQk8Y2lyY2xlIHI9Ijc1IiBjeT0iMzk2LjMiIGN4PSI2MjQuNyIgY2xhc3M9InN0MCIvPiYjeGE7CTwvZz4mI3hhOwk8Zz4mI3hhOwkJPGc+JiN4YTsJCQk8Y2lyY2xlIHI9IjM3LjciIGN5PSI0MDYuOSIgY3g9IjYzOC40IiBjbGFzcz0ic3Q2Ii8+JiN4YTsJCTwvZz4mI3hhOwkJPGc+JiN4YTsJCQk8Zz4mI3hhOwkJCQk8Y2lyY2xlIHI9IjE4LjgiIGN5PSI0MDYuOSIgY3g9IjYzOC40IiBjbGFzcz0ic3Q0Ii8+JiN4YTsJCQk8L2c+JiN4YTsJCQk8Zz4mI3hhOwkJCQk8Y2lyY2xlIHI9IjExLjUiIGN5PSIzOTMuMSIgY3g9IjYyOC41IiBjbGFzcz0ic3Q2Ii8+JiN4YTsJCQk8L2c+JiN4YTsJCQk8Zz4mI3hhOwkJCQk8Y2lyY2xlIHI9IjYuMyIgY3k9IjQxMC44IiBjeD0iNjQzLjciIGNsYXNzPSJzdDYiLz4mI3hhOwkJCTwvZz4mI3hhOwkJPC9nPiYjeGE7CTwvZz4mI3hhOwk8Zz4mI3hhOwkJPHBhdGggZD0iTTM0MS44LDcwNC41aDE1NS43Yzc3LjgsMCwxNDAuOS02My4xLDE0MC45LTE0MC45di0xOC41SDUwMS4yQzQxMy4yLDU0NS4xLDM0MS44LDYxNi41LDM0MS44LDcwNC41JiMxMDsmIzk7JiM5OyYjOTtMMzQxLjgsNzA0LjV6IiBjbGFzcz0ic3QwIi8+JiN4YTsJPC9nPiYjeGE7CTxnPiYjeGE7CQk8cGF0aCBkPSJNNTgxLjgsNTY4LjNjMCwwLTIwLjksMTE1LjgtMjIyLjgsNjQuNGMwLDAsMjAuMi00Mi43LDU0LjItNTguMUM0NDcuMiw1NTkuMSw1ODEuOCw1NjguMyw1ODEuOCw1NjguM3oiIGNsYXNzPSJzdDEiLz4mI3hhOwk8L2c+JiN4YTsJPGc+JiN4YTsJCTxwYXRoIGQ9Ik01NjYsNTE2LjZjMzEuOCwzMS44LDE2LjUsODUuOC0yNy4xLDk2LjdjLTU2LDE0LTExNy44LTEtMTYxLjYtNDQuOGMtNjYuNS02Ni41LTY2LjUtMTc0LjIsMC0yNDAuNiYjMTA7JiM5OyYjOTsmIzk7TDU2Niw1MTYuNnoiIGNsYXNzPSJzdDEiLz4mI3hhOwk8L2c+JiN4YTsJPGc+JiN4YTsJCTxwYXRoIGQ9Ik01MjEuNSw0NzIuMWMtMzkuOCwzOS44LTEwNC4zLDM5LjgtMTQ0LDBzLTM5LjgtMTA0LjMsMC0xNDRMNTIxLjUsNDcyLjF6IiBjbGFzcz0ic3QwIi8+JiN4YTsJPC9nPiYjeGE7CTxnPiYjeGE7CQk8Zz4mI3hhOwkJCTxwYXRoIGQ9Ik00OTYuMSw2MzMuOWwtNS45LTAuNGwtMy0wLjJsLTIuOS0wLjRsLTUuOS0wLjdsLTUuOC0xYy0xLTAuMi0xLjktMC4zLTIuOS0wLjVsLTIuOS0wLjYmIzEwOyYjOTsmIzk7JiM5OyYjOTtjLTEuOS0wLjQtMy44LTAuOC01LjgtMS4zbC01LjctMS41Yy0wLjktMC4zLTEuOS0wLjUtMi44LTAuOGwtMi44LTAuOWMtMS45LTAuNi0zLjctMS4yLTUuNi0xLjhsLTUuNS0yLjEmIzEwOyYjOTsmIzk7JiM5OyYjOTtjLTAuOS0wLjQtMS44LTAuNy0yLjctMWwtMi43LTEuMmMtMS44LTAuOC0zLjYtMS41LTUuNC0yLjNsLTUuMy0yLjZjLTAuOS0wLjQtMS44LTAuOC0yLjYtMS4zbC0yLjYtMS40bC01LjEtMi44bC01LTMuMSYjMTA7JiM5OyYjOTsmIzk7JiM5O2MtMjYuMy0xNi41LTQ3LjgtMzkuNy02Mi40LTY2LjNjLTE0LjUtMjYuNy0yMS44LTU2LjgtMjEuMy04Ni41YzAuNS0yOS43LDguNi01OC45LDIzLjItODRjLTEyLjMsMjYuMy0xNy41LDU1LjUtMTUuNCw4My44JiMxMDsmIzk7JiM5OyYjOTsmIzk7YzIuMSwyOC4zLDExLjUsNTUuNywyNi45LDc4LjdjMTUuNCwyMywzNi42LDQxLjgsNjAuNiw1NC4xbDQuNSwyLjNsNC42LDJsMi4zLDFjMC44LDAuMywxLjYsMC42LDIuNCwwLjlsNC43LDEuOCYjMTA7JiM5OyYjOTsmIzk7JiM5O2MxLjYsMC41LDMuMiwxLjEsNC44LDEuNmwyLjQsMC44YzAuOCwwLjMsMS42LDAuNSwyLjQsMC43bDQuOCwxLjNjMS42LDAuNCwzLjMsMC43LDQuOSwxLjFsMi40LDAuNWMwLjgsMC4yLDEuNiwwLjMsMi41LDAuNCYjMTA7JiM5OyYjOTsmIzk7JiM5O2w0LjksMC45bDUsMC42bDIuNSwwLjNjMC44LDAuMSwxLjcsMC4xLDIuNSwwLjJsNSwwLjRsNSwwLjJsMi41LDAuMWwyLjUsMGw0LjktMC4xbDAuNiwwYzguNi0wLjEsMTUuNyw2LjcsMTUuOSwxNS40JiMxMDsmIzk7JiM5OyYjOTsmIzk7YzAuMSw4LjYtNi43LDE1LjctMTUuNCwxNS45QzQ5Nyw2MzQsNDk2LjUsNjM0LDQ5Ni4xLDYzMy45eiIgY2xhc3M9InN0MiIvPiYjeGE7CQk8L2c+JiN4YTsJPC9nPiYjeGE7PC9nPiYjeGE7PC9zdmc+;strokeColor=light-dark(#fa877c, #32a0ff);" parent="1" vertex="1">
                    <mxGeometry x="263" y="230" width="57" height="57" as="geometry"/>
                </mxCell>
                <mxCell id="mOgeQCi3F3nQQeEdunfi-13" value="" style="sketch=0;pointerEvents=1;shadow=0;dashed=0;html=1;strokeColor=none;fillColor=light-dark(#fa877c, #a8a8a8);labelPosition=center;verticalLabelPosition=bottom;verticalAlign=top;outlineConnect=0;align=center;shape=mxgraph.office.communications.exchange_active_sync;" parent="1" vertex="1">
                    <mxGeometry x="228" y="283" width="29" height="29" as="geometry"/>
                </mxCell>
                <mxCell id="mOgeQCi3F3nQQeEdunfi-14" value="Workflow / Pipeline file (YAML)" style="strokeWidth=2;html=1;shape=mxgraph.flowchart.document2;whiteSpace=wrap;size=0.25;fillColor=#d5e8d4;strokeColor=#82b366;" parent="1" vertex="1">
                    <mxGeometry x="83.33" y="160" width="116.67" height="70" as="geometry"/>
                </mxCell>
                <mxCell id="mOgeQCi3F3nQQeEdunfi-15" style="edgeStyle=orthogonalEdgeStyle;html=1;exitX=1;exitY=0.5;exitDx=0;exitDy=0;exitPerimeter=0;entryX=0.5;entryY=0;entryDx=0;entryDy=0;startArrow=classic;startFill=1;endArrow=none;endFill=0;" parent="1" source="mOgeQCi3F3nQQeEdunfi-14" target="mOgeQCi3F3nQQeEdunfi-3" edge="1">
                    <mxGeometry relative="1" as="geometry">
                        <mxPoint x="230" y="308" as="sourcePoint"/>
                        <mxPoint x="320" y="305" as="targetPoint"/>
                    </mxGeometry>
                </mxCell>
                <mxCell id="mOgeQCi3F3nQQeEdunfi-45" value="Loads pipeline with stages&amp;nbsp;&lt;div&gt;and steps&lt;/div&gt;" style="edgeLabel;html=1;align=center;verticalAlign=middle;resizable=0;points=[];" parent="mOgeQCi3F3nQQeEdunfi-15" vertex="1" connectable="0">
                    <mxGeometry x="-0.32" y="1" relative="1" as="geometry">
                        <mxPoint x="10" y="16" as="offset"/>
                    </mxGeometry>
                </mxCell>
                <mxCell id="mOgeQCi3F3nQQeEdunfi-16" style="edgeStyle=none;html=1;exitX=1;exitY=0.5;exitDx=0;exitDy=0;entryX=0.08;entryY=0.48;entryDx=0;entryDy=0;entryPerimeter=0;" parent="1" source="mOgeQCi3F3nQQeEdunfi-3" target="mOgeQCi3F3nQQeEdunfi-6" edge="1">
                    <mxGeometry relative="1" as="geometry"/>
                </mxCell>
                <mxCell id="mOgeQCi3F3nQQeEdunfi-18" value="&lt;b&gt;DB&lt;/b&gt;" style="shape=datastore;whiteSpace=wrap;html=1;rounded=1;shadow=0;glass=0;opacity=70;strokeColor=light-dark(#fa877c, #ededed);strokeWidth=3;align=center;verticalAlign=top;arcSize=5;fontFamily=Helvetica;fontSize=12;fontColor=default;fillColor=default;" parent="1" vertex="1">
                    <mxGeometry x="390" y="470" width="70" height="70" as="geometry"/>
                </mxCell>
                <mxCell id="mOgeQCi3F3nQQeEdunfi-21" value="" style="html=1;verticalLabelPosition=bottom;align=center;labelBackgroundColor=#ffffff;verticalAlign=top;strokeWidth=3;strokeColor=light-dark(#fa877c, #32a0ff);shadow=0;dashed=0;shape=mxgraph.ios7.icons.cloud;" parent="1" vertex="1">
                    <mxGeometry x="472.63" y="475" width="91.67" height="55" as="geometry"/>
                </mxCell>
                <mxCell id="mOgeQCi3F3nQQeEdunfi-22" value="" style="shape=image;verticalLabelPosition=bottom;labelBackgroundColor=default;verticalAlign=top;aspect=fixed;imageAspect=0;image=data:image/svg+xml,PHN2ZyB4bWxuczp4bGluaz0iaHR0cDovL3d3dy53My5vcmcvMTk5OS94bGluayIgeG1sbnM9Imh0dHA6Ly93d3cudzMub3JnLzIwMDAvc3ZnIiB4bWw6c3BhY2U9InByZXNlcnZlIiBzdHlsZT0iZW5hYmxlLWJhY2tncm91bmQ6bmV3IDAgMCAxMDAwIDEwMDA7IiB2aWV3Qm94PSIwIDAgMTAwMCAxMDAwIiB5PSIwcHgiIHg9IjBweCIgaWQ9IkxheWVyXzEiIHZlcnNpb249IjEuMSI+JiN4YTs8c3R5bGUgdHlwZT0idGV4dC9jc3MiPiYjeGE7CS5zdDB7ZmlsbDojRkE4NzdDO30mI3hhOwkuc3Qxe2ZpbGw6I0VGNjc2MTt9JiN4YTsJLnN0MntmaWxsOiM3Q0Q1QzE7fSYjeGE7CS5zdDN7ZmlsbDojMzUzNTM1O30mI3hhOwkuc3Q0e2ZpbGw6IzVFNUU1RTt9JiN4YTsJLnN0NXtmaWxsOiNGMEQwQzA7fSYjeGE7CS5zdDZ7ZmlsbDojRkZGRkZGO30mI3hhOzwvc3R5bGU+JiN4YTs8Zz4mI3hhOwk8cGF0aCBkPSJNMjc0LjksNjcyLjdoNzUuM2M4LjgsMCwxNS45LDcuMSwxNS45LDE1Ljl2MGMwLDguOC03LjEsMTUuOS0xNS45LDE1LjloLTc1LjNjLTguOCwwLTE1LjktNy4xLTE1LjktMTUuOXYwJiMxMDsmIzk7JiM5O0MyNTksNjc5LjgsMjY2LjEsNjcyLjcsMjc0LjksNjcyLjd6IiBjbGFzcz0ic3QwIi8+JiN4YTsJPHBhdGggZD0iTTI5MS42LDY0MC45aDc1LjNjOC44LDAsMTUuOSw3LjEsMTUuOSwxNS45djBjMCw4LjgtNy4xLDE1LjktMTUuOSwxNS45aC03NS4zYy04LjgsMC0xNS45LTcuMS0xNS45LTE1Ljl2MCYjMTA7JiM5OyYjOTtDMjc1LjcsNjQ4LDI4Mi44LDY0MC45LDI5MS42LDY0MC45eiIgY2xhc3M9InN0MSIvPiYjeGE7CTxwYXRoIGQ9Ik0zMTcsNjA5LjFoNzUuM2M4LjgsMCwxNS45LDcuMSwxNS45LDE1Ljl2MGMwLDguOC03LjEsMTUuOS0xNS45LDE1LjlIMzE3Yy04LjgsMC0xNS45LTcuMS0xNS45LTE1Ljl2MCYjMTA7JiM5OyYjOTtDMzAxLjEsNjE2LjIsMzA4LjIsNjA5LjEsMzE3LDYwOS4xeiIgY2xhc3M9InN0MiIvPiYjeGE7CTxnPiYjeGE7CQk8cGF0aCBkPSJNNTM2LjIsMjk1LjVjMCwwLDEyLjksMjkuMiw4NC40LDI1LjhsLTEyLjUsNTUuMUM2MDguMSwzNzYuNSw1MjIsMzY0LjksNTM2LjIsMjk1LjV6IiBjbGFzcz0ic3QwIi8+JiN4YTsJPC9nPiYjeGE7CTxnPiYjeGE7CQk8cGF0aCBkPSJNNzA1LjksNTI3LjVjMzkuMS0zMCw0Ni43LTg2LDE2LjgtMTI1LjNjLTI5LjktMzkuMy04NS44LTQ3LjEtMTI1LjMtMTcuNUw3MDUuOSw1MjcuNXoiIGNsYXNzPSJzdDQiLz4mI3hhOwk8L2c+JiN4YTsJPGc+JiN4YTsJCTxwYXRoIGQ9Ik03MzEuNyw0MTYuNWMtMi41LTUtNS41LTkuOS05LTE0LjZjLTI5LjktMzkuMy04NS44LTQ3LjEtMTI1LjMtMTcuNGw3Mi4xLDk1JiMxMDsmIzk7JiM5OyYjOTtDNzAxLjcsNDc0LjMsNzI2LjksNDQ4LjgsNzMxLjcsNDE2LjV6IiBjbGFzcz0ic3Q1Ii8+JiN4YTsJPC9nPiYjeGE7CTxnPiYjeGE7CQk8cG9seWdvbiBwb2ludHM9IjU0OS43LDM5Ni4zIDYzOC40LDM2My40IDYzOC40LDU0NS4xIDU0OS43LDU0NS4xIiBjbGFzcz0ic3QwIi8+JiN4YTsJPC9nPiYjeGE7CTxnPiYjeGE7CQk8Y2lyY2xlIHI9Ijc1IiBjeT0iMzk2LjMiIGN4PSI2MjQuNyIgY2xhc3M9InN0MCIvPiYjeGE7CTwvZz4mI3hhOwk8Zz4mI3hhOwkJPGc+JiN4YTsJCQk8Y2lyY2xlIHI9IjM3LjciIGN5PSI0MDYuOSIgY3g9IjYzOC40IiBjbGFzcz0ic3Q2Ii8+JiN4YTsJCTwvZz4mI3hhOwkJPGc+JiN4YTsJCQk8Zz4mI3hhOwkJCQk8Y2lyY2xlIHI9IjE4LjgiIGN5PSI0MDYuOSIgY3g9IjYzOC40IiBjbGFzcz0ic3Q0Ii8+JiN4YTsJCQk8L2c+JiN4YTsJCQk8Zz4mI3hhOwkJCQk8Y2lyY2xlIHI9IjExLjUiIGN5PSIzOTMuMSIgY3g9IjYyOC41IiBjbGFzcz0ic3Q2Ii8+JiN4YTsJCQk8L2c+JiN4YTsJCQk8Zz4mI3hhOwkJCQk8Y2lyY2xlIHI9IjYuMyIgY3k9IjQxMC44IiBjeD0iNjQzLjciIGNsYXNzPSJzdDYiLz4mI3hhOwkJCTwvZz4mI3hhOwkJPC9nPiYjeGE7CTwvZz4mI3hhOwk8Zz4mI3hhOwkJPHBhdGggZD0iTTM0MS44LDcwNC41aDE1NS43Yzc3LjgsMCwxNDAuOS02My4xLDE0MC45LTE0MC45di0xOC41SDUwMS4yQzQxMy4yLDU0NS4xLDM0MS44LDYxNi41LDM0MS44LDcwNC41JiMxMDsmIzk7JiM5OyYjOTtMMzQxLjgsNzA0LjV6IiBjbGFzcz0ic3QwIi8+JiN4YTsJPC9nPiYjeGE7CTxnPiYjeGE7CQk8cGF0aCBkPSJNNTgxLjgsNTY4LjNjMCwwLTIwLjksMTE1LjgtMjIyLjgsNjQuNGMwLDAsMjAuMi00Mi43LDU0LjItNTguMUM0NDcuMiw1NTkuMSw1ODEuOCw1NjguMyw1ODEuOCw1NjguM3oiIGNsYXNzPSJzdDEiLz4mI3hhOwk8L2c+JiN4YTsJPGc+JiN4YTsJCTxwYXRoIGQ9Ik01NjYsNTE2LjZjMzEuOCwzMS44LDE2LjUsODUuOC0yNy4xLDk2LjdjLTU2LDE0LTExNy44LTEtMTYxLjYtNDQuOGMtNjYuNS02Ni41LTY2LjUtMTc0LjIsMC0yNDAuNiYjMTA7JiM5OyYjOTsmIzk7TDU2Niw1MTYuNnoiIGNsYXNzPSJzdDEiLz4mI3hhOwk8L2c+JiN4YTsJPGc+JiN4YTsJCTxwYXRoIGQ9Ik01MjEuNSw0NzIuMWMtMzkuOCwzOS44LTEwNC4zLDM5LjgtMTQ0LDBzLTM5LjgtMTA0LjMsMC0xNDRMNTIxLjUsNDcyLjF6IiBjbGFzcz0ic3QwIi8+JiN4YTsJPC9nPiYjeGE7CTxnPiYjeGE7CQk8Zz4mI3hhOwkJCTxwYXRoIGQ9Ik00OTYuMSw2MzMuOWwtNS45LTAuNGwtMy0wLjJsLTIuOS0wLjRsLTUuOS0wLjdsLTUuOC0xYy0xLTAuMi0xLjktMC4zLTIuOS0wLjVsLTIuOS0wLjYmIzEwOyYjOTsmIzk7JiM5OyYjOTtjLTEuOS0wLjQtMy44LTAuOC01LjgtMS4zbC01LjctMS41Yy0wLjktMC4zLTEuOS0wLjUtMi44LTAuOGwtMi44LTAuOWMtMS45LTAuNi0zLjctMS4yLTUuNi0xLjhsLTUuNS0yLjEmIzEwOyYjOTsmIzk7JiM5OyYjOTtjLTAuOS0wLjQtMS44LTAuNy0yLjctMWwtMi43LTEuMmMtMS44LTAuOC0zLjYtMS41LTUuNC0yLjNsLTUuMy0yLjZjLTAuOS0wLjQtMS44LTAuOC0yLjYtMS4zbC0yLjYtMS40bC01LjEtMi44bC01LTMuMSYjMTA7JiM5OyYjOTsmIzk7JiM5O2MtMjYuMy0xNi41LTQ3LjgtMzkuNy02Mi40LTY2LjNjLTE0LjUtMjYuNy0yMS44LTU2LjgtMjEuMy04Ni41YzAuNS0yOS43LDguNi01OC45LDIzLjItODRjLTEyLjMsMjYuMy0xNy41LDU1LjUtMTUuNCw4My44JiMxMDsmIzk7JiM5OyYjOTsmIzk7YzIuMSwyOC4zLDExLjUsNTUuNywyNi45LDc4LjdjMTUuNCwyMywzNi42LDQxLjgsNjAuNiw1NC4xbDQuNSwyLjNsNC42LDJsMi4zLDFjMC44LDAuMywxLjYsMC42LDIuNCwwLjlsNC43LDEuOCYjMTA7JiM5OyYjOTsmIzk7JiM5O2MxLjYsMC41LDMuMiwxLjEsNC44LDEuNmwyLjQsMC44YzAuOCwwLjMsMS42LDAuNSwyLjQsMC43bDQuOCwxLjNjMS42LDAuNCwzLjMsMC43LDQuOSwxLjFsMi40LDAuNWMwLjgsMC4yLDEuNiwwLjMsMi41LDAuNCYjMTA7JiM5OyYjOTsmIzk7JiM5O2w0LjksMC45bDUsMC42bDIuNSwwLjNjMC44LDAuMSwxLjcsMC4xLDIuNSwwLjJsNSwwLjRsNSwwLjJsMi41LDAuMWwyLjUsMGw0LjktMC4xbDAuNiwwYzguNi0wLjEsMTUuNyw2LjcsMTUuOSwxNS40JiMxMDsmIzk7JiM5OyYjOTsmIzk7YzAuMSw4LjYtNi43LDE1LjctMTUuNCwxNS45QzQ5Nyw2MzQsNDk2LjUsNjM0LDQ5Ni4xLDYzMy45eiIgY2xhc3M9InN0MiIvPiYjeGE7CQk8L2c+JiN4YTsJPC9nPiYjeGE7PC9nPiYjeGE7PC9zdmc+;strokeColor=light-dark(#fa877c, #32a0ff);" parent="1" vertex="1">
                    <mxGeometry x="486.25" y="471.25" width="67.5" height="67.5" as="geometry"/>
                </mxCell>
                <mxCell id="mOgeQCi3F3nQQeEdunfi-23" value="&lt;span&gt;&lt;i&gt;Flamingock&amp;nbsp;&lt;/i&gt;&lt;/span&gt;&lt;div&gt;&lt;span&gt;&lt;i&gt;Cloud&lt;/i&gt;&lt;/span&gt;&lt;/div&gt;" style="text;html=1;align=center;verticalAlign=middle;resizable=0;points=[];autosize=1;strokeColor=none;fillColor=none;fontStyle=1" parent="1" vertex="1">
                    <mxGeometry x="477.5" y="545" width="90" height="40" as="geometry"/>
                </mxCell>
                <mxCell id="mOgeQCi3F3nQQeEdunfi-24" value="" style="shape=datastore;whiteSpace=wrap;html=1;rounded=1;shadow=0;glass=0;opacity=70;strokeColor=light-dark(#fa877c, #ededed);strokeWidth=3;align=center;verticalAlign=top;arcSize=5;fontFamily=Helvetica;fontSize=12;fontColor=default;fillColor=default;" parent="1" vertex="1">
                    <mxGeometry x="590" y="470" width="70" height="70" as="geometry"/>
                </mxCell>
                <mxCell id="mOgeQCi3F3nQQeEdunfi-25" value="" style="shape=image;verticalLabelPosition=bottom;labelBackgroundColor=default;verticalAlign=top;aspect=fixed;imageAspect=0;image=data:image/svg+xml,PHN2ZyB4bWxuczp4bGluaz0iaHR0cDovL3d3dy53My5vcmcvMTk5OS94bGluayIgeG1sbnM9Imh0dHA6Ly93d3cudzMub3JnLzIwMDAvc3ZnIiB4bWw6c3BhY2U9InByZXNlcnZlIiBzdHlsZT0iZW5hYmxlLWJhY2tncm91bmQ6bmV3IDAgMCAxMDAwIDEwMDA7IiB2aWV3Qm94PSIwIDAgMTAwMCAxMDAwIiB5PSIwcHgiIHg9IjBweCIgaWQ9IkxheWVyXzEiIHZlcnNpb249IjEuMSI+JiN4YTs8c3R5bGUgdHlwZT0idGV4dC9jc3MiPiYjeGE7CS5zdDB7ZmlsbDojRkE4NzdDO30mI3hhOwkuc3Qxe2ZpbGw6I0VGNjc2MTt9JiN4YTsJLnN0MntmaWxsOiM3Q0Q1QzE7fSYjeGE7CS5zdDN7ZmlsbDojMzUzNTM1O30mI3hhOwkuc3Q0e2ZpbGw6IzVFNUU1RTt9JiN4YTsJLnN0NXtmaWxsOiNGMEQwQzA7fSYjeGE7CS5zdDZ7ZmlsbDojRkZGRkZGO30mI3hhOzwvc3R5bGU+JiN4YTs8Zz4mI3hhOwk8cGF0aCBkPSJNMjc0LjksNjcyLjdoNzUuM2M4LjgsMCwxNS45LDcuMSwxNS45LDE1Ljl2MGMwLDguOC03LjEsMTUuOS0xNS45LDE1LjloLTc1LjNjLTguOCwwLTE1LjktNy4xLTE1LjktMTUuOXYwJiMxMDsmIzk7JiM5O0MyNTksNjc5LjgsMjY2LjEsNjcyLjcsMjc0LjksNjcyLjd6IiBjbGFzcz0ic3QwIi8+JiN4YTsJPHBhdGggZD0iTTI5MS42LDY0MC45aDc1LjNjOC44LDAsMTUuOSw3LjEsMTUuOSwxNS45djBjMCw4LjgtNy4xLDE1LjktMTUuOSwxNS45aC03NS4zYy04LjgsMC0xNS45LTcuMS0xNS45LTE1Ljl2MCYjMTA7JiM5OyYjOTtDMjc1LjcsNjQ4LDI4Mi44LDY0MC45LDI5MS42LDY0MC45eiIgY2xhc3M9InN0MSIvPiYjeGE7CTxwYXRoIGQ9Ik0zMTcsNjA5LjFoNzUuM2M4LjgsMCwxNS45LDcuMSwxNS45LDE1Ljl2MGMwLDguOC03LjEsMTUuOS0xNS45LDE1LjlIMzE3Yy04LjgsMC0xNS45LTcuMS0xNS45LTE1Ljl2MCYjMTA7JiM5OyYjOTtDMzAxLjEsNjE2LjIsMzA4LjIsNjA5LjEsMzE3LDYwOS4xeiIgY2xhc3M9InN0MiIvPiYjeGE7CTxnPiYjeGE7CQk8cGF0aCBkPSJNNTM2LjIsMjk1LjVjMCwwLDEyLjksMjkuMiw4NC40LDI1LjhsLTEyLjUsNTUuMUM2MDguMSwzNzYuNSw1MjIsMzY0LjksNTM2LjIsMjk1LjV6IiBjbGFzcz0ic3QwIi8+JiN4YTsJPC9nPiYjeGE7CTxnPiYjeGE7CQk8cGF0aCBkPSJNNzA1LjksNTI3LjVjMzkuMS0zMCw0Ni43LTg2LDE2LjgtMTI1LjNjLTI5LjktMzkuMy04NS44LTQ3LjEtMTI1LjMtMTcuNUw3MDUuOSw1MjcuNXoiIGNsYXNzPSJzdDQiLz4mI3hhOwk8L2c+JiN4YTsJPGc+JiN4YTsJCTxwYXRoIGQ9Ik03MzEuNyw0MTYuNWMtMi41LTUtNS41LTkuOS05LTE0LjZjLTI5LjktMzkuMy04NS44LTQ3LjEtMTI1LjMtMTcuNGw3Mi4xLDk1JiMxMDsmIzk7JiM5OyYjOTtDNzAxLjcsNDc0LjMsNzI2LjksNDQ4LjgsNzMxLjcsNDE2LjV6IiBjbGFzcz0ic3Q1Ii8+JiN4YTsJPC9nPiYjeGE7CTxnPiYjeGE7CQk8cG9seWdvbiBwb2ludHM9IjU0OS43LDM5Ni4zIDYzOC40LDM2My40IDYzOC40LDU0NS4xIDU0OS43LDU0NS4xIiBjbGFzcz0ic3QwIi8+JiN4YTsJPC9nPiYjeGE7CTxnPiYjeGE7CQk8Y2lyY2xlIHI9Ijc1IiBjeT0iMzk2LjMiIGN4PSI2MjQuNyIgY2xhc3M9InN0MCIvPiYjeGE7CTwvZz4mI3hhOwk8Zz4mI3hhOwkJPGc+JiN4YTsJCQk8Y2lyY2xlIHI9IjM3LjciIGN5PSI0MDYuOSIgY3g9IjYzOC40IiBjbGFzcz0ic3Q2Ii8+JiN4YTsJCTwvZz4mI3hhOwkJPGc+JiN4YTsJCQk8Zz4mI3hhOwkJCQk8Y2lyY2xlIHI9IjE4LjgiIGN5PSI0MDYuOSIgY3g9IjYzOC40IiBjbGFzcz0ic3Q0Ii8+JiN4YTsJCQk8L2c+JiN4YTsJCQk8Zz4mI3hhOwkJCQk8Y2lyY2xlIHI9IjExLjUiIGN5PSIzOTMuMSIgY3g9IjYyOC41IiBjbGFzcz0ic3Q2Ii8+JiN4YTsJCQk8L2c+JiN4YTsJCQk8Zz4mI3hhOwkJCQk8Y2lyY2xlIHI9IjYuMyIgY3k9IjQxMC44IiBjeD0iNjQzLjciIGNsYXNzPSJzdDYiLz4mI3hhOwkJCTwvZz4mI3hhOwkJPC9nPiYjeGE7CTwvZz4mI3hhOwk8Zz4mI3hhOwkJPHBhdGggZD0iTTM0MS44LDcwNC41aDE1NS43Yzc3LjgsMCwxNDAuOS02My4xLDE0MC45LTE0MC45di0xOC41SDUwMS4yQzQxMy4yLDU0NS4xLDM0MS44LDYxNi41LDM0MS44LDcwNC41JiMxMDsmIzk7JiM5OyYjOTtMMzQxLjgsNzA0LjV6IiBjbGFzcz0ic3QwIi8+JiN4YTsJPC9nPiYjeGE7CTxnPiYjeGE7CQk8cGF0aCBkPSJNNTgxLjgsNTY4LjNjMCwwLTIwLjksMTE1LjgtMjIyLjgsNjQuNGMwLDAsMjAuMi00Mi43LDU0LjItNTguMUM0NDcuMiw1NTkuMSw1ODEuOCw1NjguMyw1ODEuOCw1NjguM3oiIGNsYXNzPSJzdDEiLz4mI3hhOwk8L2c+JiN4YTsJPGc+JiN4YTsJCTxwYXRoIGQ9Ik01NjYsNTE2LjZjMzEuOCwzMS44LDE2LjUsODUuOC0yNy4xLDk2LjdjLTU2LDE0LTExNy44LTEtMTYxLjYtNDQuOGMtNjYuNS02Ni41LTY2LjUtMTc0LjIsMC0yNDAuNiYjMTA7JiM5OyYjOTsmIzk7TDU2Niw1MTYuNnoiIGNsYXNzPSJzdDEiLz4mI3hhOwk8L2c+JiN4YTsJPGc+JiN4YTsJCTxwYXRoIGQ9Ik01MjEuNSw0NzIuMWMtMzkuOCwzOS44LTEwNC4zLDM5LjgtMTQ0LDBzLTM5LjgtMTA0LjMsMC0xNDRMNTIxLjUsNDcyLjF6IiBjbGFzcz0ic3QwIi8+JiN4YTsJPC9nPiYjeGE7CTxnPiYjeGE7CQk8Zz4mI3hhOwkJCTxwYXRoIGQ9Ik00OTYuMSw2MzMuOWwtNS45LTAuNGwtMy0wLjJsLTIuOS0wLjRsLTUuOS0wLjdsLTUuOC0xYy0xLTAuMi0xLjktMC4zLTIuOS0wLjVsLTIuOS0wLjYmIzEwOyYjOTsmIzk7JiM5OyYjOTtjLTEuOS0wLjQtMy44LTAuOC01LjgtMS4zbC01LjctMS41Yy0wLjktMC4zLTEuOS0wLjUtMi44LTAuOGwtMi44LTAuOWMtMS45LTAuNi0zLjctMS4yLTUuNi0xLjhsLTUuNS0yLjEmIzEwOyYjOTsmIzk7JiM5OyYjOTtjLTAuOS0wLjQtMS44LTAuNy0yLjctMWwtMi43LTEuMmMtMS44LTAuOC0zLjYtMS41LTUuNC0yLjNsLTUuMy0yLjZjLTAuOS0wLjQtMS44LTAuOC0yLjYtMS4zbC0yLjYtMS40bC01LjEtMi44bC01LTMuMSYjMTA7JiM5OyYjOTsmIzk7JiM5O2MtMjYuMy0xNi41LTQ3LjgtMzkuNy02Mi40LTY2LjNjLTE0LjUtMjYuNy0yMS44LTU2LjgtMjEuMy04Ni41YzAuNS0yOS43LDguNi01OC45LDIzLjItODRjLTEyLjMsMjYuMy0xNy41LDU1LjUtMTUuNCw4My44JiMxMDsmIzk7JiM5OyYjOTsmIzk7YzIuMSwyOC4zLDExLjUsNTUuNywyNi45LDc4LjdjMTUuNCwyMywzNi42LDQxLjgsNjAuNiw1NC4xbDQuNSwyLjNsNC42LDJsMi4zLDFjMC44LDAuMywxLjYsMC42LDIuNCwwLjlsNC43LDEuOCYjMTA7JiM5OyYjOTsmIzk7JiM5O2MxLjYsMC41LDMuMiwxLjEsNC44LDEuNmwyLjQsMC44YzAuOCwwLjMsMS42LDAuNSwyLjQsMC43bDQuOCwxLjNjMS42LDAuNCwzLjMsMC43LDQuOSwxLjFsMi40LDAuNWMwLjgsMC4yLDEuNiwwLjMsMi41LDAuNCYjMTA7JiM5OyYjOTsmIzk7JiM5O2w0LjksMC45bDUsMC42bDIuNSwwLjNjMC44LDAuMSwxLjcsMC4xLDIuNSwwLjJsNSwwLjRsNSwwLjJsMi41LDAuMWwyLjUsMGw0LjktMC4xbDAuNiwwYzguNi0wLjEsMTUuNyw2LjcsMTUuOSwxNS40JiMxMDsmIzk7JiM5OyYjOTsmIzk7YzAuMSw4LjYtNi43LDE1LjctMTUuNCwxNS45QzQ5Nyw2MzQsNDk2LjUsNjM0LDQ5Ni4xLDYzMy45eiIgY2xhc3M9InN0MiIvPiYjeGE7CQk8L2c+JiN4YTsJPC9nPiYjeGE7PC9nPiYjeGE7PC9zdmc+;strokeColor=light-dark(#fa877c, #32a0ff);" parent="1" vertex="1">
                    <mxGeometry x="597.5" y="487.5" width="60" height="60" as="geometry"/>
                </mxCell>
                <mxCell id="mOgeQCi3F3nQQeEdunfi-26" value="&lt;span&gt;&lt;i&gt;Flamingock&amp;nbsp;&lt;/i&gt;&lt;/span&gt;&lt;div&gt;&lt;span&gt;&lt;i&gt;Self Hosted&lt;/i&gt;&lt;/span&gt;&lt;/div&gt;" style="text;html=1;align=center;verticalAlign=middle;resizable=0;points=[];autosize=1;strokeColor=none;fillColor=none;fontStyle=1" parent="1" vertex="1">
                    <mxGeometry x="582.5" y="547.5" width="90" height="40" as="geometry"/>
                </mxCell>
                <mxCell id="mOgeQCi3F3nQQeEdunfi-27" value="&lt;span&gt;&lt;i&gt;Flamingock&amp;nbsp;&lt;/i&gt;&lt;/span&gt;&lt;div&gt;&lt;span&gt;&lt;i&gt;Community Edition&amp;nbsp;&lt;/i&gt;&lt;/span&gt;&lt;/div&gt;&lt;div&gt;&lt;span&gt;&lt;i&gt;(Open Source)&lt;/i&gt;&lt;/span&gt;&lt;/div&gt;" style="text;html=1;align=center;verticalAlign=middle;resizable=0;points=[];autosize=1;strokeColor=none;fillColor=none;fontStyle=1" parent="1" vertex="1">
                    <mxGeometry x="360" y="540" width="130" height="60" as="geometry"/>
                </mxCell>
                <mxCell id="mOgeQCi3F3nQQeEdunfi-28" style="edgeStyle=none;html=1;exitX=0.486;exitY=0.871;exitDx=0;exitDy=0;dashed=1;exitPerimeter=0;" parent="1" source="mOgeQCi3F3nQQeEdunfi-9" edge="1">
                    <mxGeometry relative="1" as="geometry">
                        <mxPoint x="540" y="342" as="sourcePoint"/>
                        <mxPoint x="150" y="410" as="targetPoint"/>
                    </mxGeometry>
                </mxCell>
                <mxCell id="mOgeQCi3F3nQQeEdunfi-52" value="Execute changes" style="edgeLabel;html=1;align=center;verticalAlign=middle;resizable=0;points=[];" parent="mOgeQCi3F3nQQeEdunfi-28" vertex="1" connectable="0">
                    <mxGeometry x="0.1768" y="3" relative="1" as="geometry">
                        <mxPoint as="offset"/>
                    </mxGeometry>
                </mxCell>
                <mxCell id="mOgeQCi3F3nQQeEdunfi-29" value="&lt;b&gt;SQL / NoSQL&lt;/b&gt;" style="shape=datastore;whiteSpace=wrap;html=1;rounded=1;shadow=0;glass=0;opacity=70;strokeColor=light-dark(#4D4D4D,#EDEDED);strokeWidth=3;align=center;verticalAlign=top;arcSize=5;fontFamily=Helvetica;fontSize=12;fontColor=default;fillColor=default;" parent="1" vertex="1">
                    <mxGeometry x="60" y="467.5" width="70" height="70" as="geometry"/>
                </mxCell>
                <mxCell id="mOgeQCi3F3nQQeEdunfi-30" value="" style="shape=image;editableCssRules=.*;verticalLabelPosition=bottom;labelBackgroundColor=default;verticalAlign=top;aspect=fixed;imageAspect=0;image=data:image/svg+xml,PHN2ZyB4bWxucz0iaHR0cDovL3d3dy53My5vcmcvMjAwMC9zdmciIHZpZXdCb3g9Ii0wLjUgLTAuNSAyOCAyNy44MzYiIGhlaWdodD0iMjcuODM2IiB3aWR0aD0iMjgiPgoJICA8c3R5bGUgdHlwZT0idGV4dC9jc3MiPi5zdDAgeyBzdG9wLWNvbG9yOiBsaWdodC1kYXJrKHJnYigyNTAsIDEzNSwgMTI0KSwgcmdiKDE3OSwgODAsIDcwKSk7IH0gLnN0MSB7IHN0b3AtY29sb3I6IHJnYigzNCwgNTMsIDcyKTsgfSA8L3N0eWxlPgoJPGRlZnM+CgkJPGxpbmVhckdyYWRpZW50IGdyYWRpZW50VW5pdHM9InVzZXJTcGFjZU9uVXNlIiB5Mj0iMjUuMjgzIiB4Mj0iMjMuMzI2IiB5MT0iMy40NTEiIHgxPSIyLjAzOSIgaWQ9IkEiPgoJCQk8c3RvcCBjbGFzcz0ic3QwIi8+CgkJCTxzdG9wIGNsYXNzPSJzdDEiIG9mZnNldD0iMSIvPgoJCTwvbGluZWFyR3JhZGllbnQ+Cgk8L2RlZnM+Cgk8cGF0aCBmaWxsPSJ1cmwoI0EpIiBkPSJNMjEuOTExIDE2LjIxMmMuNzY3IDAgMS40NzkuMTQ2IDIuMTM3LjQzOGE1LjYgNS42IDAgMCAxIDMuMDE0IDMuMDE0IDUuMiA1LjIgMCAwIDEgLjQzOCAyLjEzNyA1LjU5IDUuNTkgMCAwIDEtLjQzOCAyLjE5MmMtLjI5Mi42NTctLjY5NCAxLjIyNC0xLjIwNiAxLjY5OC0uNTEyLjUxMi0xLjExNC45MTMtMS44MDggMS4yMDYtLjY1OC4yOTItMS4zNy40MzgtMi4xMzcuNDM4cy0xLjQ5OC0uMTQ2LTIuMTkyLS40MzhhNS43OCA1Ljc4IDAgMCAxLTEuNzUzLTEuMjA2Yy0uNTEyLS40NzUtLjkxMy0xLjA0MS0xLjIwNi0xLjY5OGE1LjU5IDUuNTkgMCAwIDEtLjQzOC0yLjE5MnYtLjcxMmwtNy4zOTctMy42MTZjLTEuMTMyIDEuMDIzLTIuNDI5IDEuNTM0LTMuODkgMS41MzRhNS41OSA1LjU5IDAgMCAxLTIuMTkyLS40MzggNS43OCA1Ljc4IDAgMCAxLTEuNzUzLTEuMjA2Yy0uNDc1LS41MTEtLjg1OC0xLjA5Ni0xLjE1MS0xLjc1M0E1LjU5IDUuNTkgMCAwIDEtLjUgMTMuNDE4YzAtLjc2Ny4xNDYtMS40NzkuNDM4LTIuMTM3LjI5Mi0uNjk0LjY3Ni0xLjI3OSAxLjE1MS0xLjc1M2E1Ljc4IDUuNzggMCAwIDEgMS43NTMtMS4yMDYgNS41OSA1LjU5IDAgMCAxIDIuMTkyLS40MzhjLjc2NyAwIDEuNDc5LjEyOCAyLjEzNy4zODRhNC40NSA0LjQ1IDAgMCAxIDEuNzUzIDEuMTUxbDcuMzk3LTMuNjcxdi0uNjU4YzAtLjc2Ny4xNDYtMS40NzkuNDM4LTIuMTM3YTUuNiA1LjYgMCAwIDEgMS4yMDYtMS44MDggNS43OCA1Ljc4IDAgMCAxIDEuNzUzLTEuMjA1QTUuNTkgNS41OSAwIDAgMSAyMS45MTEtLjVjLjc2NyAwIDEuNDc5LjE0NiAyLjEzNy40MzhhNS42IDUuNiAwIDAgMSAxLjgwOCAxLjIwNSA1LjYgNS42IDAgMCAxIDEuMjA2IDEuODA4IDUuMiA1LjIgMCAwIDEgLjQzOCAyLjEzNyA1LjU5IDUuNTkgMCAwIDEtLjQzOCAyLjE5MiA1Ljc4IDUuNzggMCAwIDEtMS4yMDYgMS43NTNjLS41MTIuNDc1LTEuMTE0Ljg1OC0xLjgwOCAxLjE1MS0uNjU4LjI5Mi0xLjM3LjQzOC0yLjEzNy40MzgtLjk4NiAwLTEuODgxLS4yMDEtMi42ODUtLjYwMy0uNzY3LS40MzgtMS40MDYtMS4wMjMtMS45MTgtMS43NTNsLTYuODQ5IDMuNTA3Yy4xODMuNjIxLjI3NCAxLjE2OS4yNzQgMS42NDQgMCAuNTExLS4wOTEgMS4wNzgtLjI3NCAxLjY5OWw2Ljg0OSAzLjQ1MmE2Ljc3IDYuNzcgMCAwIDEgMS45NzMtMS42OTljLjc2Ny0uNDM4IDEuNjQ0LS42NTcgMi42My0uNjU3em0wLTEzLjkxOGEyLjY5IDIuNjkgMCAwIDAtMS45NzMuODIyIDIuNjkgMi42OSAwIDAgMC0uODIyIDEuOTczIDIuNjkgMi42OSAwIDAgMCAuODIyIDEuOTczIDIuNjkgMi42OSAwIDAgMCAxLjk3My44MjIgMi42OSAyLjY5IDAgMCAwIDEuOTczLS44MjIgMi42OSAyLjY5IDAgMCAwIC44MjItMS45NzMgMi42OSAyLjY5IDAgMCAwLS44MjItMS45NzMgMi42OSAyLjY5IDAgMCAwLTEuOTczLS44MjJ6TTUuMTk5IDE2LjIxMmEyLjY5IDIuNjkgMCAwIDAgMS45NzMtLjgyMiAyLjY5IDIuNjkgMCAwIDAgLjgyMi0xLjk3MyAyLjY5IDIuNjkgMCAwIDAtLjgyMi0xLjk3MyAyLjY5IDIuNjkgMCAwIDAtMS45NzMtLjgyMiAyLjY5IDIuNjkgMCAwIDAtMS45NzMuODIyIDIuNjkgMi42OSAwIDAgMC0uODIyIDEuOTczIDIuNjkgMi42OSAwIDAgMCAuODIyIDEuOTczIDIuNjkgMi42OSAwIDAgMCAxLjk3My44MjJ6bTE2LjcxMiA4LjM4M2EyLjY5IDIuNjkgMCAwIDAgMS45NzMtLjgyMiAyLjY5IDIuNjkgMCAwIDAgLjgyMi0xLjk3MyAyLjY5IDIuNjkgMCAwIDAtLjgyMi0xLjk3MyAyLjY5IDIuNjkgMCAwIDAtMS45NzMtLjgyMiAyLjY5IDIuNjkgMCAwIDAtMS45NzMuODIyIDIuNjkgMi42OSAwIDAgMC0uODIyIDEuOTczIDIuNjkgMi42OSAwIDAgMCAuODIyIDEuOTczIDIuNjkgMi42OSAwIDAgMCAxLjk3My44MjJ6Ii8+Cjwvc3ZnPg==;rotation=90;" parent="1" vertex="1">
                    <mxGeometry x="137" y="475" width="53" height="53" as="geometry"/>
                </mxCell>
                <mxCell id="mOgeQCi3F3nQQeEdunfi-31" value="&lt;b&gt;APIs&lt;/b&gt;" style="text;html=1;align=center;verticalAlign=middle;resizable=0;points=[];autosize=1;strokeColor=none;fillColor=none;" parent="1" vertex="1">
                    <mxGeometry x="137" y="528" width="50" height="30" as="geometry"/>
                </mxCell>
                <mxCell id="mOgeQCi3F3nQQeEdunfi-32" value="" style="sketch=0;verticalLabelPosition=bottom;sketch=0;aspect=fixed;html=1;verticalAlign=top;strokeColor=none;fillColor=#000000;align=center;outlineConnect=0;pointerEvents=1;shape=mxgraph.citrix2.web_saas_apps;" parent="1" vertex="1">
                    <mxGeometry x="204" y="475" width="50" height="38.45" as="geometry"/>
                </mxCell>
                <mxCell id="mOgeQCi3F3nQQeEdunfi-33" value="&lt;b&gt;External&amp;nbsp;&lt;/b&gt;&lt;div&gt;&lt;b&gt;SaaS&lt;/b&gt;&lt;/div&gt;&lt;div&gt;&lt;b&gt;&amp;nbsp;providers&lt;/b&gt;&lt;/div&gt;" style="text;html=1;align=center;verticalAlign=middle;resizable=0;points=[];autosize=1;strokeColor=none;fillColor=none;" parent="1" vertex="1">
                    <mxGeometry x="189" y="513" width="80" height="60" as="geometry"/>
                </mxCell>
                <mxCell id="mOgeQCi3F3nQQeEdunfi-34" value="" style="html=1;verticalLabelPosition=bottom;align=center;labelBackgroundColor=#ffffff;verticalAlign=top;strokeWidth=2;strokeColor=#4D4D4D;shadow=0;dashed=0;shape=mxgraph.ios7.icons.settings;" parent="1" vertex="1">
                    <mxGeometry x="280" y="474.22" width="40" height="40" as="geometry"/>
                </mxCell>
                <mxCell id="mOgeQCi3F3nQQeEdunfi-35" value="&lt;b&gt;Kafka,&amp;nbsp;&lt;/b&gt;&lt;div&gt;&lt;b&gt;API Gateways,&amp;nbsp;&lt;/b&gt;&lt;/div&gt;&lt;div&gt;&lt;b&gt;etc&lt;/b&gt;&lt;/div&gt;" style="text;html=1;align=center;verticalAlign=middle;resizable=0;points=[];autosize=1;strokeColor=none;fillColor=none;" parent="1" vertex="1">
                    <mxGeometry x="245" y="514.22" width="110" height="60" as="geometry"/>
                </mxCell>
                <mxCell id="mOgeQCi3F3nQQeEdunfi-36" value="" style="rounded=1;whiteSpace=wrap;html=1;fillColor=#d5e8d4;strokeColor=#82b366;" parent="1" vertex="1">
                    <mxGeometry x="60" y="1" width="40" height="19" as="geometry"/>
                </mxCell>
                <mxCell id="mOgeQCi3F3nQQeEdunfi-37" value="" style="rounded=1;whiteSpace=wrap;html=1;fillColor=default;strokeColor=light-dark(#fa877c, #ededed);shadow=0;glass=0;opacity=70;strokeWidth=3;align=center;verticalAlign=top;arcSize=5;fontFamily=Helvetica;fontSize=12;fontColor=default;" parent="1" vertex="1">
                    <mxGeometry x="60" y="32" width="40" height="19" as="geometry"/>
                </mxCell>
                <mxCell id="mOgeQCi3F3nQQeEdunfi-38" value="" style="rounded=1;whiteSpace=wrap;html=1;arcSize=5;verticalAlign=top;fontSize=16;fillColor=#f5f5f5;fontColor=#333333;strokeColor=#666666;" parent="1" vertex="1">
                    <mxGeometry x="340" y="5.5" width="40" height="19" as="geometry"/>
                </mxCell>
                <mxCell id="mOgeQCi3F3nQQeEdunfi-39" value="&lt;b&gt;&lt;i&gt;Key&lt;/i&gt;&lt;/b&gt;" style="text;html=1;align=center;verticalAlign=middle;whiteSpace=wrap;rounded=0;" parent="1" vertex="1">
                    <mxGeometry x="40" y="-30" width="60" height="30" as="geometry"/>
                </mxCell>
                <mxCell id="mOgeQCi3F3nQQeEdunfi-41" value="Files to be configured / implemented" style="text;html=1;align=left;verticalAlign=middle;whiteSpace=wrap;rounded=0;" parent="1" vertex="1">
                    <mxGeometry x="110" y="-3.5" width="230" height="30" as="geometry"/>
                </mxCell>
                <mxCell id="mOgeQCi3F3nQQeEdunfi-42" value="Flamingock components" style="text;html=1;align=left;verticalAlign=middle;whiteSpace=wrap;rounded=0;" parent="1" vertex="1">
                    <mxGeometry x="110" y="31" width="180" height="30" as="geometry"/>
                </mxCell>
                <mxCell id="mOgeQCi3F3nQQeEdunfi-43" value="Your application" style="text;html=1;align=left;verticalAlign=middle;whiteSpace=wrap;rounded=0;" parent="1" vertex="1">
                    <mxGeometry x="390" y="1" width="130" height="30" as="geometry"/>
                </mxCell>
                <mxCell id="mOgeQCi3F3nQQeEdunfi-50" style="edgeStyle=none;html=1;exitX=0.5;exitY=1;exitDx=0;exitDy=0;entryX=0.75;entryY=0;entryDx=0;entryDy=0;" parent="1" source="mOgeQCi3F3nQQeEdunfi-47" target="mOgeQCi3F3nQQeEdunfi-3" edge="1">
                    <mxGeometry relative="1" as="geometry"/>
                </mxCell>
                <mxCell id="mOgeQCi3F3nQQeEdunfi-51" value="Start Flamingock process" style="edgeLabel;html=1;align=center;verticalAlign=middle;resizable=0;points=[];" parent="mOgeQCi3F3nQQeEdunfi-50" vertex="1" connectable="0">
                    <mxGeometry x="-0.4832" y="2" relative="1" as="geometry">
                        <mxPoint x="-2" y="-11" as="offset"/>
                    </mxGeometry>
                </mxCell>
                <mxCell id="mOgeQCi3F3nQQeEdunfi-47" value="Startup&amp;nbsp;&lt;div&gt;Main class&lt;/div&gt;" style="rounded=0;whiteSpace=wrap;html=1;fillColor=#d5e8d4;strokeColor=#82b366;" parent="1" vertex="1">
                    <mxGeometry x="332" y="130" width="120" height="30" as="geometry"/>
                </mxCell>
                <mxCell id="mOgeQCi3F3nQQeEdunfi-49" value="&lt;div&gt;&lt;b&gt;Flamingock entities:&lt;/b&gt;&lt;/div&gt;- Change audit history&lt;div&gt;&lt;font color=&quot;#000000&quot;&gt;- Lock management&lt;/font&gt;&lt;/div&gt;&lt;div&gt;&lt;font color=&quot;#000000&quot;&gt;- Organistaions / User Management&lt;/font&gt;&lt;/div&gt;" style="whiteSpace=wrap;html=1;shape=mxgraph.basic.document" parent="1" vertex="1">
                    <mxGeometry x="672.5" y="477.5" width="197.5" height="80" as="geometry"/>
                </mxCell>
            </root>
        </mxGraphModel>
    </diagram>
    <diagram name="IaC vs CaC" id="4G8aZ86E68goz5gpvTJv">
        <mxGraphModel dx="906" dy="622" grid="0" gridSize="10" guides="1" tooltips="1" connect="1" arrows="1" fold="1" page="1" pageScale="1" pageWidth="827" pageHeight="1169" math="0" shadow="0">
            <root>
                <mxCell id="0"/>
                <mxCell id="1" parent="0"/>
                <mxCell id="DVWNVoKxzQbAFcYcQHIr-41" value="«&lt;span style=&quot;border-color: var(--border-color);&quot;&gt;&lt;span style=&quot;border-color: var(--border-color);&quot;&gt;&lt;font style=&quot;font-size: 11px;&quot;&gt;(ie. SQL/NoSQL DB,&lt;br&gt;SaaS, &lt;br&gt;Kafka,&lt;br&gt;Custom, etc&lt;/font&gt;&lt;/span&gt;&lt;/span&gt;»&lt;br&gt;&lt;b&gt;Component&lt;/b&gt;" style="html=1;dropTarget=0;sketch=1;fontSize=14;fontColor=#333333;fillColor=#f5f5f5;verticalAlign=top;strokeColor=#666666;" parent="1" vertex="1">
                    <mxGeometry x="259" y="196" width="355" height="304" as="geometry"/>
                </mxCell>
                <mxCell id="DVWNVoKxzQbAFcYcQHIr-42" value="" style="shape=module;jettyWidth=8;jettyHeight=4;sketch=1;fontSize=14;fontColor=#000000;fillColor=none;" parent="DVWNVoKxzQbAFcYcQHIr-41" vertex="1">
                    <mxGeometry x="1" width="20" height="20" relative="1" as="geometry">
                        <mxPoint x="-27" y="7" as="offset"/>
                    </mxGeometry>
                </mxCell>
                <mxCell id="DVWNVoKxzQbAFcYcQHIr-40" value="" style="html=1;whiteSpace=wrap;shape=isoCube2;backgroundOutline=1;isoAngle=16.625;sketch=1;fontSize=12;fontColor=default;fillColor=#fff2cc;strokeColor=#d6b656;curveFitting=1;jiggle=2;" parent="1" vertex="1">
                    <mxGeometry x="281.5" y="300" width="321" height="200" as="geometry"/>
                </mxCell>
                <mxCell id="DVWNVoKxzQbAFcYcQHIr-15" value="" style="html=1;shape=mxgraph.basic.isocube;isoAngle=15;sketch=1;curveFitting=1;jiggle=2;fillColor=#dae8fc;strokeColor=#6c8ebf;" parent="1" vertex="1">
                    <mxGeometry x="357" y="310" width="70" height="70" as="geometry"/>
                </mxCell>
                <mxCell id="DVWNVoKxzQbAFcYcQHIr-17" value="&lt;span&gt;&lt;i&gt;&lt;br&gt;Component infrastructure set up&amp;nbsp;&lt;br&gt;via Infrastructure-as-Code (IaC) &lt;br&gt;- ie. Terraform, Pullumi, etc&lt;/i&gt;&lt;/span&gt;" style="text;html=1;align=center;verticalAlign=middle;resizable=0;points=[];autosize=1;strokeColor=none;fillColor=none;fontStyle=0" parent="1" vertex="1">
                    <mxGeometry x="32" y="406" width="193" height="70" as="geometry"/>
                </mxCell>
                <mxCell id="DVWNVoKxzQbAFcYcQHIr-20" value="&lt;b&gt;&lt;i&gt;Your Application&lt;/i&gt;&lt;/b&gt;" style="shape=hexagon;perimeter=hexagonPerimeter2;whiteSpace=wrap;html=1;fixedSize=1;sketch=1;fillColor=#d5e8d4;strokeColor=#82b366;" parent="1" vertex="1">
                    <mxGeometry x="67" y="196" width="120" height="80" as="geometry"/>
                </mxCell>
                <mxCell id="DVWNVoKxzQbAFcYcQHIr-21" value="" style="endArrow=classic;html=1;curved=1;sketch=1;curveFitting=1;jiggle=2;exitX=0.902;exitY=1.021;exitDx=0;exitDy=0;exitPerimeter=0;" parent="1" source="DVWNVoKxzQbAFcYcQHIr-27" edge="1">
                    <mxGeometry width="50" height="50" relative="1" as="geometry">
                        <mxPoint x="272" y="315.99" as="sourcePoint"/>
                        <mxPoint x="360" y="354" as="targetPoint"/>
                        <Array as="points">
                            <mxPoint x="67" y="332"/>
                            <mxPoint x="117" y="332"/>
                            <mxPoint x="170" y="332"/>
                            <mxPoint x="192" y="335.99"/>
                            <mxPoint x="212" y="335.99"/>
                        </Array>
                    </mxGeometry>
                </mxCell>
                <mxCell id="DVWNVoKxzQbAFcYcQHIr-39" value="&lt;b&gt;&lt;i&gt;CaC&lt;/i&gt;&lt;/b&gt;" style="edgeLabel;html=1;align=center;verticalAlign=middle;resizable=0;points=[];fontSize=14;fontColor=#000000;" parent="DVWNVoKxzQbAFcYcQHIr-21" vertex="1" connectable="0">
                    <mxGeometry x="0.5268" y="-1" relative="1" as="geometry">
                        <mxPoint x="-24" y="-11" as="offset"/>
                    </mxGeometry>
                </mxCell>
                <mxCell id="DVWNVoKxzQbAFcYcQHIr-26" value="" style="shape=image;verticalLabelPosition=bottom;labelBackgroundColor=default;verticalAlign=top;aspect=fixed;imageAspect=0;image=data:image/svg+xml,PHN2ZyB4bWxuczp4bGluaz0iaHR0cDovL3d3dy53My5vcmcvMTk5OS94bGluayIgeG1sbnM9Imh0dHA6Ly93d3cudzMub3JnLzIwMDAvc3ZnIiB4bWw6c3BhY2U9InByZXNlcnZlIiBzdHlsZT0iZW5hYmxlLWJhY2tncm91bmQ6bmV3IDAgMCAxMDAwIDEwMDA7IiB2aWV3Qm94PSIwIDAgMTAwMCAxMDAwIiB5PSIwcHgiIHg9IjBweCIgaWQ9IkxheWVyXzEiIHZlcnNpb249IjEuMSI+JiN4YTs8c3R5bGUgdHlwZT0idGV4dC9jc3MiPiYjeGE7CS5zdDB7ZmlsbDojRkE4NzdDO30mI3hhOwkuc3Qxe2ZpbGw6I0VGNjc2MTt9JiN4YTsJLnN0MntmaWxsOiM3Q0Q1QzE7fSYjeGE7CS5zdDN7ZmlsbDojMzUzNTM1O30mI3hhOwkuc3Q0e2ZpbGw6IzVFNUU1RTt9JiN4YTsJLnN0NXtmaWxsOiNGMEQwQzA7fSYjeGE7CS5zdDZ7ZmlsbDojRkZGRkZGO30mI3hhOzwvc3R5bGU+JiN4YTs8Zz4mI3hhOwk8cGF0aCBkPSJNMjc0LjksNjcyLjdoNzUuM2M4LjgsMCwxNS45LDcuMSwxNS45LDE1Ljl2MGMwLDguOC03LjEsMTUuOS0xNS45LDE1LjloLTc1LjNjLTguOCwwLTE1LjktNy4xLTE1LjktMTUuOXYwJiMxMDsmIzk7JiM5O0MyNTksNjc5LjgsMjY2LjEsNjcyLjcsMjc0LjksNjcyLjd6IiBjbGFzcz0ic3QwIi8+JiN4YTsJPHBhdGggZD0iTTI5MS42LDY0MC45aDc1LjNjOC44LDAsMTUuOSw3LjEsMTUuOSwxNS45djBjMCw4LjgtNy4xLDE1LjktMTUuOSwxNS45aC03NS4zYy04LjgsMC0xNS45LTcuMS0xNS45LTE1Ljl2MCYjMTA7JiM5OyYjOTtDMjc1LjcsNjQ4LDI4Mi44LDY0MC45LDI5MS42LDY0MC45eiIgY2xhc3M9InN0MSIvPiYjeGE7CTxwYXRoIGQ9Ik0zMTcsNjA5LjFoNzUuM2M4LjgsMCwxNS45LDcuMSwxNS45LDE1Ljl2MGMwLDguOC03LjEsMTUuOS0xNS45LDE1LjlIMzE3Yy04LjgsMC0xNS45LTcuMS0xNS45LTE1Ljl2MCYjMTA7JiM5OyYjOTtDMzAxLjEsNjE2LjIsMzA4LjIsNjA5LjEsMzE3LDYwOS4xeiIgY2xhc3M9InN0MiIvPiYjeGE7CTxnPiYjeGE7CQk8cGF0aCBkPSJNNTM2LjIsMjk1LjVjMCwwLDEyLjksMjkuMiw4NC40LDI1LjhsLTEyLjUsNTUuMUM2MDguMSwzNzYuNSw1MjIsMzY0LjksNTM2LjIsMjk1LjV6IiBjbGFzcz0ic3QwIi8+JiN4YTsJPC9nPiYjeGE7CTxnPiYjeGE7CQk8cGF0aCBkPSJNNzA1LjksNTI3LjVjMzkuMS0zMCw0Ni43LTg2LDE2LjgtMTI1LjNjLTI5LjktMzkuMy04NS44LTQ3LjEtMTI1LjMtMTcuNUw3MDUuOSw1MjcuNXoiIGNsYXNzPSJzdDQiLz4mI3hhOwk8L2c+JiN4YTsJPGc+JiN4YTsJCTxwYXRoIGQ9Ik03MzEuNyw0MTYuNWMtMi41LTUtNS41LTkuOS05LTE0LjZjLTI5LjktMzkuMy04NS44LTQ3LjEtMTI1LjMtMTcuNGw3Mi4xLDk1JiMxMDsmIzk7JiM5OyYjOTtDNzAxLjcsNDc0LjMsNzI2LjksNDQ4LjgsNzMxLjcsNDE2LjV6IiBjbGFzcz0ic3Q1Ii8+JiN4YTsJPC9nPiYjeGE7CTxnPiYjeGE7CQk8cG9seWdvbiBwb2ludHM9IjU0OS43LDM5Ni4zIDYzOC40LDM2My40IDYzOC40LDU0NS4xIDU0OS43LDU0NS4xIiBjbGFzcz0ic3QwIi8+JiN4YTsJPC9nPiYjeGE7CTxnPiYjeGE7CQk8Y2lyY2xlIHI9Ijc1IiBjeT0iMzk2LjMiIGN4PSI2MjQuNyIgY2xhc3M9InN0MCIvPiYjeGE7CTwvZz4mI3hhOwk8Zz4mI3hhOwkJPGc+JiN4YTsJCQk8Y2lyY2xlIHI9IjM3LjciIGN5PSI0MDYuOSIgY3g9IjYzOC40IiBjbGFzcz0ic3Q2Ii8+JiN4YTsJCTwvZz4mI3hhOwkJPGc+JiN4YTsJCQk8Zz4mI3hhOwkJCQk8Y2lyY2xlIHI9IjE4LjgiIGN5PSI0MDYuOSIgY3g9IjYzOC40IiBjbGFzcz0ic3Q0Ii8+JiN4YTsJCQk8L2c+JiN4YTsJCQk8Zz4mI3hhOwkJCQk8Y2lyY2xlIHI9IjExLjUiIGN5PSIzOTMuMSIgY3g9IjYyOC41IiBjbGFzcz0ic3Q2Ii8+JiN4YTsJCQk8L2c+JiN4YTsJCQk8Zz4mI3hhOwkJCQk8Y2lyY2xlIHI9IjYuMyIgY3k9IjQxMC44IiBjeD0iNjQzLjciIGNsYXNzPSJzdDYiLz4mI3hhOwkJCTwvZz4mI3hhOwkJPC9nPiYjeGE7CTwvZz4mI3hhOwk8Zz4mI3hhOwkJPHBhdGggZD0iTTM0MS44LDcwNC41aDE1NS43Yzc3LjgsMCwxNDAuOS02My4xLDE0MC45LTE0MC45di0xOC41SDUwMS4yQzQxMy4yLDU0NS4xLDM0MS44LDYxNi41LDM0MS44LDcwNC41JiMxMDsmIzk7JiM5OyYjOTtMMzQxLjgsNzA0LjV6IiBjbGFzcz0ic3QwIi8+JiN4YTsJPC9nPiYjeGE7CTxnPiYjeGE7CQk8cGF0aCBkPSJNNTgxLjgsNTY4LjNjMCwwLTIwLjksMTE1LjgtMjIyLjgsNjQuNGMwLDAsMjAuMi00Mi43LDU0LjItNTguMUM0NDcuMiw1NTkuMSw1ODEuOCw1NjguMyw1ODEuOCw1NjguM3oiIGNsYXNzPSJzdDEiLz4mI3hhOwk8L2c+JiN4YTsJPGc+JiN4YTsJCTxwYXRoIGQ9Ik01NjYsNTE2LjZjMzEuOCwzMS44LDE2LjUsODUuOC0yNy4xLDk2LjdjLTU2LDE0LTExNy44LTEtMTYxLjYtNDQuOGMtNjYuNS02Ni41LTY2LjUtMTc0LjIsMC0yNDAuNiYjMTA7JiM5OyYjOTsmIzk7TDU2Niw1MTYuNnoiIGNsYXNzPSJzdDEiLz4mI3hhOwk8L2c+JiN4YTsJPGc+JiN4YTsJCTxwYXRoIGQ9Ik01MjEuNSw0NzIuMWMtMzkuOCwzOS44LTEwNC4zLDM5LjgtMTQ0LDBzLTM5LjgtMTA0LjMsMC0xNDRMNTIxLjUsNDcyLjF6IiBjbGFzcz0ic3QwIi8+JiN4YTsJPC9nPiYjeGE7CTxnPiYjeGE7CQk8Zz4mI3hhOwkJCTxwYXRoIGQ9Ik00OTYuMSw2MzMuOWwtNS45LTAuNGwtMy0wLjJsLTIuOS0wLjRsLTUuOS0wLjdsLTUuOC0xYy0xLTAuMi0xLjktMC4zLTIuOS0wLjVsLTIuOS0wLjYmIzEwOyYjOTsmIzk7JiM5OyYjOTtjLTEuOS0wLjQtMy44LTAuOC01LjgtMS4zbC01LjctMS41Yy0wLjktMC4zLTEuOS0wLjUtMi44LTAuOGwtMi44LTAuOWMtMS45LTAuNi0zLjctMS4yLTUuNi0xLjhsLTUuNS0yLjEmIzEwOyYjOTsmIzk7JiM5OyYjOTtjLTAuOS0wLjQtMS44LTAuNy0yLjctMWwtMi43LTEuMmMtMS44LTAuOC0zLjYtMS41LTUuNC0yLjNsLTUuMy0yLjZjLTAuOS0wLjQtMS44LTAuOC0yLjYtMS4zbC0yLjYtMS40bC01LjEtMi44bC01LTMuMSYjMTA7JiM5OyYjOTsmIzk7JiM5O2MtMjYuMy0xNi41LTQ3LjgtMzkuNy02Mi40LTY2LjNjLTE0LjUtMjYuNy0yMS44LTU2LjgtMjEuMy04Ni41YzAuNS0yOS43LDguNi01OC45LDIzLjItODRjLTEyLjMsMjYuMy0xNy41LDU1LjUtMTUuNCw4My44JiMxMDsmIzk7JiM5OyYjOTsmIzk7YzIuMSwyOC4zLDExLjUsNTUuNywyNi45LDc4LjdjMTUuNCwyMywzNi42LDQxLjgsNjAuNiw1NC4xbDQuNSwyLjNsNC42LDJsMi4zLDFjMC44LDAuMywxLjYsMC42LDIuNCwwLjlsNC43LDEuOCYjMTA7JiM5OyYjOTsmIzk7JiM5O2MxLjYsMC41LDMuMiwxLjEsNC44LDEuNmwyLjQsMC44YzAuOCwwLjMsMS42LDAuNSwyLjQsMC43bDQuOCwxLjNjMS42LDAuNCwzLjMsMC43LDQuOSwxLjFsMi40LDAuNWMwLjgsMC4yLDEuNiwwLjMsMi41LDAuNCYjMTA7JiM5OyYjOTsmIzk7JiM5O2w0LjksMC45bDUsMC42bDIuNSwwLjNjMC44LDAuMSwxLjcsMC4xLDIuNSwwLjJsNSwwLjRsNSwwLjJsMi41LDAuMWwyLjUsMGw0LjktMC4xbDAuNiwwYzguNi0wLjEsMTUuNyw2LjcsMTUuOSwxNS40JiMxMDsmIzk7JiM5OyYjOTsmIzk7YzAuMSw4LjYtNi43LDE1LjctMTUuNCwxNS45QzQ5Nyw2MzQsNDk2LjUsNjM0LDQ5Ni4xLDYzMy45eiIgY2xhc3M9InN0MiIvPiYjeGE7CQk8L2c+JiN4YTsJPC9nPiYjeGE7PC9nPiYjeGE7PC9zdmc+;" parent="1" vertex="1">
                    <mxGeometry x="103.5" y="238" width="50" height="50" as="geometry"/>
                </mxCell>
                <mxCell id="DVWNVoKxzQbAFcYcQHIr-27" value="&lt;span&gt;&lt;i&gt;&lt;br&gt;Component evolution&lt;br&gt;via Change-as-Code (CaC) &lt;br&gt;with Flamingock&lt;br&gt;&lt;/i&gt;&lt;/span&gt;" style="text;html=1;align=center;verticalAlign=middle;resizable=0;points=[];autosize=1;strokeColor=none;fillColor=none;fontStyle=0" parent="1" vertex="1">
                    <mxGeometry x="47" y="262.01" width="163" height="70" as="geometry"/>
                </mxCell>
                <mxCell id="DVWNVoKxzQbAFcYcQHIr-30" value="" style="html=1;shape=mxgraph.basic.isocube;isoAngle=15;sketch=1;curveFitting=1;jiggle=2;fillColor=#dae8fc;strokeColor=#6c8ebf;" parent="1" vertex="1">
                    <mxGeometry x="407" y="340" width="70" height="70" as="geometry"/>
                </mxCell>
                <mxCell id="DVWNVoKxzQbAFcYcQHIr-31" value="" style="html=1;shape=mxgraph.basic.isocube;isoAngle=15;sketch=1;curveFitting=1;jiggle=2;fillColor=#dae8fc;strokeColor=#6c8ebf;" parent="1" vertex="1">
                    <mxGeometry x="457" y="370" width="70" height="70" as="geometry"/>
                </mxCell>
                <mxCell id="DVWNVoKxzQbAFcYcQHIr-32" value="&lt;b&gt;&lt;i&gt;Change 2&lt;/i&gt;&lt;/b&gt;" style="text;html=1;strokeColor=none;fillColor=none;align=center;verticalAlign=middle;whiteSpace=wrap;rounded=0;fontSize=14;fontColor=#000000;" parent="1" vertex="1">
                    <mxGeometry x="392" y="360" width="90" height="30" as="geometry"/>
                </mxCell>
                <mxCell id="DVWNVoKxzQbAFcYcQHIr-33" value="&lt;b&gt;&lt;i&gt;Change 3&lt;/i&gt;&lt;/b&gt;" style="text;html=1;strokeColor=none;fillColor=none;align=center;verticalAlign=middle;whiteSpace=wrap;rounded=0;fontSize=14;fontColor=#000000;" parent="1" vertex="1">
                    <mxGeometry x="347" y="330" width="90" height="30" as="geometry"/>
                </mxCell>
                <mxCell id="DVWNVoKxzQbAFcYcQHIr-37" value="" style="curved=1;endArrow=classic;html=1;sketch=1;fontSize=14;fontColor=#000000;entryX=0.111;entryY=0.663;entryDx=0;entryDy=0;entryPerimeter=0;" parent="1" source="DVWNVoKxzQbAFcYcQHIr-17" target="DVWNVoKxzQbAFcYcQHIr-40" edge="1">
                    <mxGeometry width="50" height="50" relative="1" as="geometry">
                        <mxPoint x="252" y="450" as="sourcePoint"/>
                        <mxPoint x="354" y="436" as="targetPoint"/>
                        <Array as="points">
                            <mxPoint x="235" y="443"/>
                            <mxPoint x="272" y="440"/>
                        </Array>
                    </mxGeometry>
                </mxCell>
                <mxCell id="DVWNVoKxzQbAFcYcQHIr-38" value="&lt;b&gt;&lt;i&gt;IaC&lt;/i&gt;&lt;/b&gt;" style="edgeLabel;html=1;align=center;verticalAlign=middle;resizable=0;points=[];fontSize=14;fontColor=#000000;" parent="DVWNVoKxzQbAFcYcQHIr-37" vertex="1" connectable="0">
                    <mxGeometry x="-0.0831" relative="1" as="geometry">
                        <mxPoint x="-26" y="1" as="offset"/>
                    </mxGeometry>
                </mxCell>
                <mxCell id="DVWNVoKxzQbAFcYcQHIr-29" value="&lt;b&gt;&lt;i&gt;Change 1&lt;/i&gt;&lt;/b&gt;" style="text;html=1;strokeColor=none;fillColor=none;align=center;verticalAlign=middle;whiteSpace=wrap;rounded=0;fontSize=14;fontColor=#000000;" parent="1" vertex="1">
                    <mxGeometry x="447" y="400" width="90" height="30" as="geometry"/>
                </mxCell>
            </root>
        </mxGraphModel>
    </diagram>
    <diagram id="YAKN2sUYa99uHxu1SabF" name="Flamingock editions">
        <mxGraphModel dx="906" dy="622" grid="0" gridSize="10" guides="1" tooltips="1" connect="1" arrows="1" fold="1" page="1" pageScale="1" pageWidth="827" pageHeight="1169" math="0" shadow="0">
            <root>
                <mxCell id="0"/>
                <mxCell id="1" parent="0"/>
                <mxCell id="8JSROGX-utiSW2-ytDaz-2" value="&lt;b style=&quot;font-size: 15px;&quot;&gt;&lt;i style=&quot;font-size: 15px;&quot;&gt;Flamingock Community Edition &lt;br style=&quot;font-size: 15px;&quot;&gt;(Open Source)&lt;/i&gt;&lt;/b&gt;" style="rounded=1;whiteSpace=wrap;html=1;fontSize=15;fillColor=#F0D0C0;glass=1;strokeColor=#36393d;" parent="1" vertex="1">
                    <mxGeometry x="22" y="159" width="248" height="87" as="geometry"/>
                </mxCell>
                <mxCell id="8JSROGX-utiSW2-ytDaz-3" value="&lt;b style=&quot;font-size: 15px;&quot;&gt;&lt;i style=&quot;font-size: 15px;&quot;&gt;Flamingock Cloud&amp;nbsp;&lt;br style=&quot;font-size: 15px;&quot;&gt;&lt;/i&gt;&lt;/b&gt;&lt;b style=&quot;border-color: var(--border-color); font-size: 15px;&quot;&gt;&lt;i style=&quot;border-color: var(--border-color); font-size: 15px;&quot;&gt;(Coming soon!)&lt;/i&gt;&lt;/b&gt;&lt;b style=&quot;font-size: 15px;&quot;&gt;&lt;i style=&quot;font-size: 15px;&quot;&gt;&lt;br style=&quot;font-size: 15px;&quot;&gt;&lt;/i&gt;&lt;/b&gt;" style="rounded=1;whiteSpace=wrap;html=1;fontSize=15;fillColor=#ffcccc;glass=1;strokeColor=#36393d;" parent="1" vertex="1">
                    <mxGeometry x="294" y="159" width="248" height="87" as="geometry"/>
                </mxCell>
                <mxCell id="8JSROGX-utiSW2-ytDaz-4" value="&lt;b style=&quot;font-size: 15px;&quot;&gt;&lt;i style=&quot;font-size: 15px;&quot;&gt;Flamingock Self-hosted Edition&lt;br style=&quot;font-size: 15px;&quot;&gt;(Coming soon!)&lt;/i&gt;&lt;/b&gt;" style="rounded=1;whiteSpace=wrap;html=1;fontSize=15;fillColor=#5E5E5E;glass=1;strokeColor=#36393d;fontColor=#FFFFFF;" parent="1" vertex="1">
                    <mxGeometry x="566" y="159" width="248" height="87" as="geometry"/>
                </mxCell>
            </root>
        </mxGraphModel>
    </diagram>
</mxfile>